<?xml version="1.0" encoding="UTF-8" standalone="no"?>
<!-- Created with Inkscape (http://www.inkscape.org/) -->

<svg
   xmlns:dc="http://purl.org/dc/elements/1.1/"
   xmlns:cc="http://creativecommons.org/ns#"
   xmlns:rdf="http://www.w3.org/1999/02/22-rdf-syntax-ns#"
   xmlns:svg="http://www.w3.org/2000/svg"
   xmlns="http://www.w3.org/2000/svg"
   xmlns:sodipodi="http://sodipodi.sourceforge.net/DTD/sodipodi-0.dtd"
   xmlns:inkscape="http://www.inkscape.org/namespaces/inkscape"
   width="128"
   height="128"
   viewBox="0 0 128 128"
   id="svg2"
   version="1.1"
   inkscape:version="0.91 r13725"
   sodipodi:docname="Prototyp.svg">
  <defs
     id="defs4">
    <inkscape:path-effect
       effect="spiro"
       id="path-effect4154"
       is_visible="true" />
    <inkscape:path-effect
       effect="spiro"
       id="path-effect4150"
       is_visible="true" />
    <inkscape:path-effect
       effect="spiro"
       id="path-effect3346"
       is_visible="true" />
    <inkscape:path-effect
       effect="skeletal"
       id="path-effect3342"
       is_visible="true"
       pattern="M 0,5 C 0,2.24 2.24,0 5,0 7.76,0 10,2.24 10,5 10,7.76 7.76,10 5,10 2.24,10 0,7.76 0,5 Z"
       copytype="single_stretched"
       prop_scale="1"
       scale_y_rel="false"
       spacing="0"
       normal_offset="0"
       tang_offset="0"
       prop_units="false"
       vertical_pattern="false"
       fuse_tolerance="0" />
  </defs>
  <sodipodi:namedview
     id="base"
     pagecolor="#0087ff"
     bordercolor="#666666"
     borderopacity="1.0"
     inkscape:pageopacity="1"
     inkscape:pageshadow="2"
     inkscape:zoom="3.9774756"
     inkscape:cx="24.342395"
     inkscape:cy="101.47014"
     inkscape:document-units="px"
     inkscape:current-layer="layer1-7"
     showgrid="false"
     inkscape:window-width="1920"
     inkscape:window-height="886"
     inkscape:window-x="0"
     inkscape:window-y="36"
     inkscape:window-maximized="1"
     fit-margin-top="0"
     fit-margin-left="0"
     fit-margin-right="0"
     fit-margin-bottom="0"
     units="px" />
  <metadata
     id="metadata7">
    <rdf:RDF>
      <cc:Work
         rdf:about="">
        <dc:format>image/svg+xml</dc:format>
        <dc:type
           rdf:resource="http://purl.org/dc/dcmitype/StillImage" />
        <dc:title />
      </cc:Work>
    </rdf:RDF>
  </metadata>
  <g
     inkscape:label="Ebene 1"
     inkscape:groupmode="layer"
     id="layer1"
     transform="translate(-262.3689,-340.23334)">
    <g
       id="layer1-7"
       inkscape:label="Ebene 1"
       transform="translate(-197.85713,-42.67857)">
      <g
         transform="translate(49.519491,127.05157)"
         id="g4203">
        <path
           style="fill:#ffffff;fill-opacity:1;fill-rule:evenodd;stroke:#ffffff;stroke-width:0.32168144px;stroke-linecap:butt;stroke-linejoin:miter;stroke-opacity:1"
           d="m 463.34384,317.9154 2.91972,33.82274 15.60436,-0.17763 3.86394,-33.57154 -22.38802,-0.0736 z"
           id="path4148"
           inkscape:path-effect="#path-effect4150"
           inkscape:original-d="m 463.34384,317.9154 2.91972,33.82274 15.60436,-0.17763 3.86394,-33.57154 z"
           inkscape:connector-curvature="0"
           sodipodi:nodetypes="ccccc" />
        <path
           style="fill:#ffffff;fill-opacity:1;fill-rule:evenodd;stroke:#ffffff;stroke-width:0.39189938px;stroke-linecap:butt;stroke-linejoin:miter;stroke-opacity:1"
           d="m 469.63872,332.36201 7.65327,-32.09263 c 0.0425,-0.17814 0.0845,-0.35991 0.17773,-0.51757 0.0466,-0.0788 0.10623,-0.15069 0.17959,-0.20549 0.0734,-0.0548 0.16064,-0.0919 0.2517,-0.10159 0.091,-0.01 0.18515,0.009 0.26499,0.0535 0.0799,0.0448 0.14438,0.11558 0.18412,0.19808 0.0397,0.0825 0.0547,0.17553 0.0517,0.26705 -0.003,0.0915 -0.0235,0.18145 -0.0446,0.27055 l -7.63886,32.22371 -1.07963,-0.0956 z"
           id="path4152"
           inkscape:path-effect="#path-effect4154"
           inkscape:original-d="m 469.63872,332.36201 7.65327,-32.09263 c 0.13186,-0.7038 1.26818,-0.71563 1.06522,-0.0355 l -7.63886,32.22371 z"
           inkscape:connector-curvature="0"
           sodipodi:nodetypes="ccccc" />
      </g>
      <g
         id="g4183"
         transform="translate(50.403374,127.71448)">
        <rect
           style="fill:#ffffff;fill-opacity:1;stroke:#ffffff;stroke-width:0.64360619;stroke-linejoin:round;stroke-miterlimit:4;stroke-dasharray:none;stroke-opacity:1"
           id="rect4158-8"
           width="2.9377272"
           height="57.524426"
           x="364.44928"
           y="-465.07922"
           ry="2.3173349"
           transform="matrix(0.1173673,0.99308857,-0.99995924,0.00902894,0,0)" />
        <ellipse
           style="fill:#ffffff;fill-opacity:1;stroke:#ffffff;stroke-width:1.36142254;stroke-linejoin:round;stroke-miterlimit:4;stroke-dasharray:none;stroke-opacity:1"
           id="path4269"
           cx="-409.79355"
           cy="378.6825"
           rx="8.4376297"
           ry="11.494471"
           transform="matrix(-0.1871911,-0.98232352,0.99329437,-0.11561271,0,0)" />
      </g>
      <g
         id="g4194"
         transform="translate(50.403374,127.71448)">
        <rect
           style="fill:#ffffff;fill-opacity:1;stroke:#ffffff;stroke-width:0.89225072;stroke-linejoin:round;stroke-miterlimit:4;stroke-dasharray:none;stroke-opacity:1"
           id="rect4158"
           width="4.1789002"
           height="77.720436"
           x="522.12469"
           y="156.08931"
           ry="3.130918"
           transform="matrix(0.96385115,0.26644129,-0.30447188,0.95252133,0,0)" />
        <g
           id="g4187">
          <rect
             inkscape:transform-center-y="0.55726989"
             inkscape:transform-center-x="0.83295483"
             transform="matrix(0.968972,0.24717051,-0.29897177,0.95426196,0,0)"
             ry="0.69671637"
             y="163.39828"
             x="516.26855"
             height="5.57373"
             width="16.040209"
             id="rect4246"
             style="fill:#ffffff;fill-opacity:1;stroke:#ffffff;stroke-width:1.35010457;stroke-linejoin:round;stroke-miterlimit:4;stroke-dasharray:none;stroke-opacity:1" />
          <rect
             rx="0"
             transform="matrix(0.99434115,0.10623408,-0.29458003,0.95562681,0,0)"
             ry="0.75796944"
             y="224.91977"
             x="524.06976"
             height="18.815474"
             width="1.6655123"
             id="rect4158-4-0"
             style="fill:#ffffff;fill-opacity:1;stroke:#ffffff;stroke-width:0.27715316;stroke-linejoin:round;stroke-miterlimit:4;stroke-dasharray:none;stroke-opacity:1" />
          <rect
             rx="0"
             transform="matrix(0.99420104,0.10753741,-0.2912769,0.95663879,0,0)"
             ry="0.78578067"
             y="224.21524"
             x="527.94116"
             height="19.505848"
             width="1.7075028"
             id="rect4158-4-0-1"
             style="fill:#ffffff;fill-opacity:1;stroke:#ffffff;stroke-width:0.28572711;stroke-linejoin:round;stroke-miterlimit:4;stroke-dasharray:none;stroke-opacity:1" />
          <rect
             rx="0"
             transform="matrix(0.99420104,0.10753741,-0.2912769,0.95663879,0,0)"
             ry="0.78578067"
             y="224.01118"
             x="533.27911"
             height="19.505848"
             width="1.7075028"
             id="rect4158-4-0-1-1"
             style="fill:#ffffff;fill-opacity:1;stroke:#ffffff;stroke-width:0.28572711;stroke-linejoin:round;stroke-miterlimit:4;stroke-dasharray:none;stroke-opacity:1" />
          <rect
             rx="0"
             transform="matrix(0.99420104,0.10753741,-0.2912769,0.95663879,0,0)"
             ry="0.78578067"
             y="223.92107"
             x="538.77747"
             height="19.505848"
             width="1.7075028"
             id="rect4158-4-0-1-1-8"
             style="fill:#ffffff;fill-opacity:1;stroke:#ffffff;stroke-width:0.28572711;stroke-linejoin:round;stroke-miterlimit:4;stroke-dasharray:none;stroke-opacity:1" />
        </g>
      </g>
      <rect
         transform="matrix(-0.90213422,0.43145549,-0.39532401,-0.91854174,0,0)"
         ry="3.130918"
         y="-682.16168"
         x="-328.612"
         height="77.720436"
         width="4.1789002"
         id="rect4158-0"
         style="fill:#ffffff;fill-opacity:1;stroke:#ffffff;stroke-width:0.89225072;stroke-linejoin:round;stroke-miterlimit:4;stroke-dasharray:none;stroke-opacity:1" />
      <path
         sodipodi:nodetypes="cscccc"
         inkscape:connector-curvature="0"
         id="rect4209"
         d="m 530.79959,397.18147 c 3.3344,-1.27439 4.51752,1.35001 5.76864,4.6932 l 13.73009,36.6892 c 0.82274,2.53925 -0.2625,3.6855 -5.62308,5.73428 -3.33441,1.27439 -5.7548,1.46141 -7.0292,-1.873 -5.83999,-14.55234 -13.60447,-42.27106 -6.84645,-45.24368 z"
         style="fill:#ffffff;fill-opacity:1;fill-rule:evenodd;stroke:none;stroke-width:1px;stroke-linecap:butt;stroke-linejoin:miter;stroke-opacity:1" />
      <path
         style="fill:#ffffff;fill-opacity:1;stroke:none;stroke-opacity:1"
         d="M -60.208984 9.4121094 C -62.019681 9.4121094 -63.476562 10.870944 -63.476562 12.681641 L -63.476562 73.019531 C -63.476562 73.312098 -63.426922 73.591852 -63.355469 73.861328 A 25 25 0 0 0 -63.476562 76.289062 A 25 25 0 0 0 -38.476562 101.28906 A 25 25 0 0 0 -13.476562 76.289062 A 25 25 0 0 0 -13.613281 73.908203 C -13.533378 73.624451 -13.476562 73.329517 -13.476562 73.019531 L -13.476562 12.681641 C -13.476562 10.870944 -14.935398 9.4121094 -16.746094 9.4121094 C -18.55679 9.4121094 -20.013672 10.870944 -20.013672 12.681641 L -20.013672 59.474609 A 25 25 0 0 0 -27.964844 53.636719 L -27.964844 12.681641 C -27.964844 10.870944 -29.421726 9.4121094 -31.232422 9.4121094 C -33.043118 9.4121094 -34.501953 10.870944 -34.501953 12.681641 L -34.501953 51.636719 A 25 25 0 0 0 -38.476562 51.289062 A 25 25 0 0 0 -42.453125 51.619141 L -42.453125 12.681641 C -42.453125 10.870944 -43.910007 9.4121094 -45.720703 9.4121094 C -47.531399 9.4121094 -48.988281 10.870944 -48.988281 12.681641 L -48.988281 53.638672 A 25 25 0 0 0 -56.939453 59.476562 L -56.939453 12.681641 C -56.939453 10.870944 -58.398288 9.4121094 -60.208984 9.4121094 z "
         transform="translate(460.22603,382.91191)"
         id="path4212" />
    </g>
  </g>
</svg>
