<?xml version="1.0" encoding="UTF-8" standalone="no"?>
<!-- Created with Inkscape (http://www.inkscape.org/) -->

<svg
   xmlns:dc="http://purl.org/dc/elements/1.1/"
   xmlns:cc="http://creativecommons.org/ns#"
   xmlns:rdf="http://www.w3.org/1999/02/22-rdf-syntax-ns#"
   xmlns:svg="http://www.w3.org/2000/svg"
   xmlns="http://www.w3.org/2000/svg"
   xmlns:sodipodi="http://sodipodi.sourceforge.net/DTD/sodipodi-0.dtd"
   xmlns:inkscape="http://www.inkscape.org/namespaces/inkscape"
   width="128"
   height="128"
   viewBox="0 0 128 128"
   id="svg2"
   version="1.1"
   inkscape:version="0.91 r13725"
   sodipodi:docname="Prototyp.svg">
  <defs
     id="defs4">
    <inkscape:path-effect
       effect="spiro"
       id="path-effect4154"
       is_visible="true" />
    <inkscape:path-effect
       effect="spiro"
       id="path-effect4150"
       is_visible="true" />
    <inkscape:path-effect
       effect="spiro"
       id="path-effect3346"
       is_visible="true" />
    <inkscape:path-effect
       effect="skeletal"
       id="path-effect3342"
       is_visible="true"
       pattern="M 0,5 C 0,2.24 2.24,0 5,0 7.76,0 10,2.24 10,5 10,7.76 7.76,10 5,10 2.24,10 0,7.76 0,5 Z"
       copytype="single_stretched"
       prop_scale="1"
       scale_y_rel="false"
       spacing="0"
       normal_offset="0"
       tang_offset="0"
       prop_units="false"
       vertical_pattern="false"
       fuse_tolerance="0" />
  </defs>
  <sodipodi:namedview
     id="base"
     pagecolor="#1e90ff"
     bordercolor="#666666"
     borderopacity="1.0"
     inkscape:pageopacity="1"
     inkscape:pageshadow="2"
     inkscape:zoom="3.9774756"
     inkscape:cx="35.189199"
     inkscape:cy="60.724364"
     inkscape:document-units="px"
     inkscape:current-layer="layer1-7"
     showgrid="false"
     inkscape:window-width="1920"
     inkscape:window-height="886"
     inkscape:window-x="0"
     inkscape:window-y="36"
     inkscape:window-maximized="1"
     fit-margin-top="0"
     fit-margin-left="0"
     fit-margin-right="0"
     fit-margin-bottom="0"
     units="px" />
  <metadata
     id="metadata7">
    <rdf:RDF>
      <cc:Work
         rdf:about="">
        <dc:format>image/svg+xml</dc:format>
        <dc:type
           rdf:resource="http://purl.org/dc/dcmitype/StillImage" />
        <dc:title></dc:title>
      </cc:Work>
    </rdf:RDF>
  </metadata>
  <g
     inkscape:label="Ebene 1"
     inkscape:groupmode="layer"
     id="layer1"
     transform="translate(-262.3689,-340.23334)">
    <g
       id="layer1-7"
       inkscape:label="Ebene 1"
       transform="translate(-197.85713,-42.67857)">
      <g
         transform="translate(95.277163,90.344863)"
         id="g4203">
        <path
           style="fill:#ffffff;fill-opacity:1;fill-rule:evenodd;stroke:#ffffff;stroke-width:0.32168144px;stroke-linecap:butt;stroke-linejoin:miter;stroke-opacity:1"
           d="m 463.34384,317.9154 2.91972,33.82274 15.60436,-0.17763 3.86394,-33.57154 -22.38802,-0.0736 z"
           id="path4148"
           inkscape:path-effect="#path-effect4150"
           inkscape:original-d="m 463.34384,317.9154 2.91972,33.82274 15.60436,-0.17763 3.86394,-33.57154 z"
           inkscape:connector-curvature="0"
           sodipodi:nodetypes="ccccc" />
        <path
           style="fill:#ffffff;fill-opacity:1;fill-rule:evenodd;stroke:#ffffff;stroke-width:0.39189938px;stroke-linecap:butt;stroke-linejoin:miter;stroke-opacity:1"
           d="m 469.63872,332.36201 7.65327,-32.09263 c 0.0425,-0.17814 0.0845,-0.35991 0.17773,-0.51757 0.0466,-0.0788 0.10623,-0.15069 0.17959,-0.20549 0.0734,-0.0548 0.16064,-0.0919 0.2517,-0.10159 0.091,-0.01 0.18515,0.009 0.26499,0.0535 0.0799,0.0448 0.14438,0.11558 0.18412,0.19808 0.0397,0.0825 0.0547,0.17553 0.0517,0.26705 -0.003,0.0915 -0.0235,0.18145 -0.0446,0.27055 l -7.63886,32.22371 -1.07963,-0.0956 z"
           id="path4152"
           inkscape:path-effect="#path-effect4154"
           inkscape:original-d="m 469.63872,332.36201 7.65327,-32.09263 c 0.13186,-0.7038 1.26818,-0.71563 1.06522,-0.0355 l -7.63886,32.22371 z"
           inkscape:connector-curvature="0"
           sodipodi:nodetypes="ccccc" />
      </g>
      <g
         id="g4259"
         transform="translate(1.5084945,-1.005663)">
        <rect
           style="fill:#ffffff;fill-opacity:1;stroke:#ffffff;stroke-width:0.64360619;stroke-linejoin:round;stroke-miterlimit:4;stroke-dasharray:none;stroke-opacity:1"
           id="rect4158-8"
           width="2.9377272"
           height="57.524426"
           x="-521.92157"
           y="-557.29443"
           ry="2.3173349"
           transform="matrix(-0.99308857,0.1173673,-0.00902894,-0.99995924,0,0)" />
        <ellipse
           style="fill:#ffffff;fill-opacity:1;stroke:#ffffff;stroke-width:1.36142254;stroke-linejoin:round;stroke-miterlimit:4;stroke-dasharray:none;stroke-opacity:1"
           id="path4269"
           cx="468.36884"
           cy="532.27716"
           rx="8.4376297"
           ry="11.494471"
           transform="matrix(0.98232352,-0.1871911,0.11561271,0.99329437,0,0)" />
      </g>
      <g
         id="g4187"
         transform="translate(-72.263293,124.3367)">
        <rect
           style="fill:#ffffff;fill-opacity:1;stroke:#ffffff;stroke-width:1.35010457;stroke-linejoin:round;stroke-miterlimit:4;stroke-dasharray:none;stroke-opacity:1"
           id="rect4246"
           width="16.040209"
           height="5.57373"
           x="516.26855"
           y="163.39828"
           ry="0.69671637"
           transform="matrix(0.968972,0.24717051,-0.29897177,0.95426196,0,0)"
           inkscape:transform-center-x="0.83295483"
           inkscape:transform-center-y="0.55726989" />
        <rect
           style="fill:#ffffff;fill-opacity:1;stroke:#ffffff;stroke-width:0.27715316;stroke-linejoin:round;stroke-miterlimit:4;stroke-dasharray:none;stroke-opacity:1"
           id="rect4158-4-0"
           width="1.6655123"
           height="18.815474"
           x="524.06976"
           y="224.91977"
           ry="0.75796944"
           transform="matrix(0.99434115,0.10623408,-0.29458003,0.95562681,0,0)"
           rx="0" />
        <rect
           style="fill:#ffffff;fill-opacity:1;stroke:#ffffff;stroke-width:0.28572711;stroke-linejoin:round;stroke-miterlimit:4;stroke-dasharray:none;stroke-opacity:1"
           id="rect4158-4-0-1"
           width="1.7075028"
           height="19.505848"
           x="527.94116"
           y="224.21524"
           ry="0.78578067"
           transform="matrix(0.99420104,0.10753741,-0.2912769,0.95663879,0,0)"
           rx="0" />
        <rect
           style="fill:#ffffff;fill-opacity:1;stroke:#ffffff;stroke-width:0.28572711;stroke-linejoin:round;stroke-miterlimit:4;stroke-dasharray:none;stroke-opacity:1"
           id="rect4158-4-0-1-1"
           width="1.7075028"
           height="19.505848"
           x="533.27911"
           y="224.01118"
           ry="0.78578067"
           transform="matrix(0.99420104,0.10753741,-0.2912769,0.95663879,0,0)"
           rx="0" />
        <rect
           style="fill:#ffffff;fill-opacity:1;stroke:#ffffff;stroke-width:0.28572711;stroke-linejoin:round;stroke-miterlimit:4;stroke-dasharray:none;stroke-opacity:1"
           id="rect4158-4-0-1-1-8"
           width="1.7075028"
           height="19.505848"
           x="538.77747"
           y="223.92107"
           ry="0.78578067"
           transform="matrix(0.99420104,0.10753741,-0.2912769,0.95663879,0,0)"
           rx="0" />
      </g>
      <g
         id="g4273"
         transform="translate(3.5198204,-1.7599102)">
        <rect
           style="fill:#ffffff;fill-opacity:1;stroke:#ffffff;stroke-width:0.89225072;stroke-linejoin:round;stroke-miterlimit:4;stroke-dasharray:none;stroke-opacity:1"
           id="rect4158-0"
           width="4.1789002"
           height="77.720436"
           x="-328.05908"
           y="-676.42773"
           ry="3.130918"
           transform="matrix(-0.90213422,0.43145549,-0.39532401,-0.91854174,0,0)" />
        <path
           style="fill:#ffffff;fill-opacity:1;fill-rule:evenodd;stroke:none;stroke-width:1px;stroke-linecap:butt;stroke-linejoin:miter;stroke-opacity:1"
           d="m 525.78439,392.72502 c 3.24968,-1.47713 4.59203,1.06951 6.04647,4.32939 l 15.96142,35.77493 c 0.97741,2.48382 -0.0353,3.69467 -5.25962,6.06938 -3.24968,1.47713 -5.65398,1.81271 -7.13112,-1.43697 -6.72427,-14.16546 -16.17947,-41.35395 -9.61715,-44.73673 z"
           id="rect4209"
           inkscape:connector-curvature="0"
           sodipodi:nodetypes="cscccc" />
      </g>
      <g
         id="g4249"
         transform="translate(1.5084945,-5.7825622)">
        <rect
           style="fill:#ffffff;fill-opacity:1;stroke:#ffffff;stroke-width:0.89225072;stroke-linejoin:round;stroke-miterlimit:4;stroke-dasharray:none;stroke-opacity:1"
           id="rect4158"
           width="4.1789002"
           height="77.720436"
           x="609.08893"
           y="265.84393"
           ry="3.130918"
           transform="matrix(0.96385115,0.26644129,-0.30447188,0.95252133,0,0)" />
        <path
           sodipodi:nodetypes="sssccsccssssccsssccsssccss"
           inkscape:connector-curvature="0"
           id="path4212"
           d="m 508.7526,393.84469 c -0.5047,-0.15637 -1.03677,0.12444 -1.19316,0.62913 l -5.21096,16.81819 c -0.0252,0.0816 -0.0356,0.16384 -0.039,0.24509 -0.0919,0.21799 -0.17308,0.44036 -0.2434,0.66624 -1.19243,3.84852 0.96077,7.935 4.80926,9.12742 3.84851,1.19242 7.93499,-0.96076 9.12742,-4.80926 0.0667,-0.22229 0.1225,-0.44773 0.16751,-0.67544 0.0468,-0.0722 0.0881,-0.14949 0.11488,-0.23589 l 5.21096,-16.81819 c 0.15639,-0.5047 -0.12425,-1.03732 -0.62895,-1.1937 -0.50471,-0.15637 -1.03679,0.12444 -1.19315,0.62913 l -5.64111,18.20642 -2.21625,-0.68669 5.6411,-18.20641 c 0.15638,-0.5047 -0.12372,-1.03716 -0.62841,-1.19353 -0.50471,-0.15637 -1.03733,0.12427 -1.19371,0.62895 l -5.64109,18.20643 -2.21627,-0.68669 5.6411,-18.20642 c 0.15638,-0.5047 -0.12371,-1.03715 -0.62841,-1.19353 -0.50471,-0.15636 -1.03677,0.12444 -1.19315,0.62914 l -5.64109,18.20641 -2.21627,-0.68669 5.64109,-18.20641 c 0.15638,-0.5047 -0.12426,-1.03733 -0.62895,-1.19369 z"
           style="fill:#ffffff;fill-opacity:1;stroke:none;stroke-opacity:1" />
      </g>
    </g>
  </g>
</svg>
