<?xml version="1.0" encoding="UTF-8" standalone="no"?>
<!-- Created with Inkscape (http://www.inkscape.org/) -->

<svg
   xmlns:dc="http://purl.org/dc/elements/1.1/"
   xmlns:cc="http://creativecommons.org/ns#"
   xmlns:rdf="http://www.w3.org/1999/02/22-rdf-syntax-ns#"
   xmlns:svg="http://www.w3.org/2000/svg"
   xmlns="http://www.w3.org/2000/svg"
   xmlns:sodipodi="http://sodipodi.sourceforge.net/DTD/sodipodi-0.dtd"
   xmlns:inkscape="http://www.inkscape.org/namespaces/inkscape"
   width="128"
   height="128"
   viewBox="0 0 128 128"
   id="svg2"
   version="1.1"
   inkscape:version="0.91 r13725"
   sodipodi:docname="Prototyp.svg">
  <sodipodi:namedview
     id="base"
     pagecolor="#1e90ff"
     bordercolor="#666666"
     borderopacity="1.0"
     inkscape:pageopacity="1"
     inkscape:pageshadow="2"
     inkscape:zoom="5.6249999"
     inkscape:cx="47.683054"
     inkscape:cy="75.952586"
     inkscape:document-units="px"
     inkscape:current-layer="layer1"
     showgrid="false"
     inkscape:window-width="1920"
     inkscape:window-height="886"
     inkscape:window-x="0"
     inkscape:window-y="36"
     inkscape:window-maximized="1"
     fit-margin-top="0"
     fit-margin-left="0"
     fit-margin-right="0"
     fit-margin-bottom="0"
     units="px" />
  <defs
     id="defs4">
    <inkscape:path-effect
       effect="spiro"
       id="path-effect4154"
       is_visible="true" />
    <inkscape:path-effect
       effect="spiro"
       id="path-effect4150"
       is_visible="true" />
    <inkscape:path-effect
       effect="spiro"
       id="path-effect3346"
       is_visible="true" />
    <inkscape:path-effect
       effect="skeletal"
       id="path-effect3342"
       is_visible="true"
       pattern="M 0,5 C 0,2.24 2.24,0 5,0 7.76,0 10,2.24 10,5 10,7.76 7.76,10 5,10 2.24,10 0,7.76 0,5 Z"
       copytype="single_stretched"
       prop_scale="1"
       scale_y_rel="false"
       spacing="0"
       normal_offset="0"
       tang_offset="0"
       prop_units="false"
       vertical_pattern="false"
       fuse_tolerance="0" />
  </defs>
  <metadata
     id="metadata7">
    <rdf:RDF>
      <cc:Work
         rdf:about="">
        <dc:format>image/svg+xml</dc:format>
        <dc:type
           rdf:resource="http://purl.org/dc/dcmitype/StillImage" />
        <dc:title />
      </cc:Work>
    </rdf:RDF>
  </metadata>
  <g
     inkscape:label="Ebene 1"
     inkscape:groupmode="layer"
     id="layer1"
     transform="translate(-262.3689,-340.23334)">
    <g
       id="g5134">
      <path
         style="opacity:0.09090899;fill:#000000;fill-opacity:1;fill-rule:evenodd;stroke:none;stroke-width:0.32168144px;stroke-linecap:butt;stroke-linejoin:miter;stroke-opacity:1"
         d="m 312.00781,345.85742 c -2.35364,5.9058 -3.94165,12.4126 -5.95312,18.55078 -0.64221,2.66953 0.56814,5.58991 2.81445,7.13282 -7.12245,22.60089 -14.62475,45.11579 -21.51367,67.76953 -0.39562,2.1325 2.33109,2.34113 2.92187,0.53125 7.35391,-22.327 14.34935,-44.79682 21.56836,-67.17774 4.06819,0.59177 7.31637,-2.85274 7.90928,-6.6212 1.52363,-5.42274 3.66743,-10.86008 4.83486,-16.27528 -1.54027,-0.568 -1.10549,2.70487 -1.82509,3.50135 -1.58394,5.1095 -3.16598,10.21959 -4.75108,15.32873 -4.18356,-0.0131 -2.74137,-2.99027 -1.69172,-5.75937 1.3167,-4.77162 3.27008,-9.5587 4.22883,-14.32267 -1.54031,-0.56801 -1.10526,2.70494 -1.82477,3.50146 -1.58342,5.10946 -3.1648,10.21955 -4.74945,15.32862 -4.18541,-0.008 -2.74395,-2.99165 -1.69354,-5.75933 1.31832,-4.77115 3.26671,-9.55654 4.23065,-14.32075 -1.54025,-0.56799 -1.10556,2.70485 -1.82519,3.50132 -1.58391,5.10886 -3.16595,10.2183 -4.75098,15.32681 -4.18528,-0.007 -2.74021,-2.99124 -1.69172,-5.75742 1.3167,-4.77161 3.27007,-9.55869 4.22883,-14.32266 -0.10556,-0.13901 -0.29929,-0.20262 -0.4668,-0.15625 z m 63.28321,1.88086 c -1.50089,6.11574 -2.92832,12.25288 -4.4004,18.37695 -3.194,-0.0123 -6.38802,-0.0219 -9.58203,-0.0332 0.94467,10.9388 1.88933,21.87761 2.83399,32.81641 4.90039,-0.0553 9.80078,-0.11068 14.70117,-0.16602 1.24935,-10.86002 2.4987,-21.72005 3.74805,-32.58008 -3.88216,-0.0129 -7.76432,-0.0264 -11.64649,-0.0391 1.44074,-6.09716 2.9548,-12.40593 4.34571,-18.375 z m -42.50196,0.65039 c -3.99241,1.04918 -3.02418,6.25087 -2.8115,9.37095 1.96537,12.47822 6.60994,24.50796 12.01072,35.9103 1.13649,1.98656 3.65819,1.38994 5.36719,0.625 5.94292,13.55127 11.53039,27.29569 17.69141,40.72852 1.08541,1.81439 3.30742,0.24358 2.5371,-1.54102 -5.62267,-13.57845 -11.60182,-27.0306 -17.36132,-40.56054 2.14756,-0.79048 4.10592,-3.07523 2.35426,-5.27456 -5.77441,-12.56596 -11.01036,-25.40985 -17.10036,-37.81334 -0.58539,-0.88857 -1.55427,-1.6741 -2.6875,-1.44531 z m -8.73633,38.03321 c -7.0642,2.17499 -8.17839,11.79477 -4.95898,17.56054 0.88518,2.28995 3.59296,3.42537 5.08789,4.61328 0.23892,14.22454 0.0418,28.502 0.53906,42.69532 0.84208,1.8585 2.16947,-0.69669 1.75136,-1.78905 -0.12329,-13.74545 -0.24826,-27.49088 -0.3705,-41.23635 6.48606,-1.20357 8.20164,-9.57858 6.40735,-15.07289 -1.03841,-3.64906 -4.27063,-7.5249 -8.45618,-6.77085 z"
         id="path5136"
         inkscape:connector-curvature="0" />
      <path
         style="opacity:0.09090899;fill:#000000;fill-opacity:1;fill-rule:evenodd;stroke:none;stroke-width:0.32168144px;stroke-linecap:butt;stroke-linejoin:miter;stroke-opacity:1"
         d="m 312.00195,345.75391 c -1.34637,1.72277 -1.38349,4.45754 -2.30609,6.502 -1.18947,4.60152 -3.27105,9.0336 -3.90484,13.73823 0.014,2.19874 1.1753,4.31619 2.96289,5.58008 -7.13231,22.50278 -14.49371,44.94973 -21.48047,67.48828 -0.52059,1.70349 1.59437,3.08821 2.6582,1.44336 2.01534,-3.59104 2.5669,-7.88744 4.07762,-11.71879 5.96957,-18.67381 11.93911,-37.34764 17.90871,-56.02145 3.96368,0.52839 7.30892,-2.76468 7.87731,-6.51027 1.5835,-5.4907 3.62575,-10.96084 4.93128,-16.46433 -1.43788,-1.0619 -1.34745,2.03195 -1.84853,2.77797 -1.64393,5.30112 -3.28519,10.60307 -4.93076,15.90367 -3.12325,-0.14155 -3.21467,-1.89068 -1.91452,-4.36336 1.48883,-5.19277 3.44479,-10.36465 4.65475,-15.57024 -1.43794,-1.06191 -1.34731,2.032 -1.84828,2.77806 -1.64337,5.30109 -3.28397,10.60303 -4.92906,15.90358 -3.12335,-0.14155 -3.21805,-1.88932 -1.91638,-4.36333 1.4887,-5.19184 3.44522,-10.36481 4.65466,-15.56831 -1.43416,-1.06161 -1.34662,2.03258 -1.84667,2.77796 -1.64389,5.30047 -3.28515,10.60176 -4.93068,15.90173 -3.12379,-0.13967 -3.21434,-1.88873 -1.91451,-4.36141 1.48883,-5.19276 3.44479,-10.36464 4.65475,-15.57023 -0.11258,-0.2163 -0.37171,-0.33643 -0.60938,-0.2832 z m 63.33789,1.76367 c -1.73009,6.05352 -2.97526,12.35305 -4.52734,18.49609 -3.20443,-0.008 -6.40885,-0.0212 -9.61328,-0.0312 0.95052,11.00586 1.90104,22.01172 2.85156,33.01758 4.96094,-0.0566 9.92188,-0.11328 14.88281,-0.16992 1.25717,-10.92578 2.51433,-21.85156 3.77149,-32.77735 -3.87761,-0.0131 -7.75521,-0.0255 -11.63281,-0.0391 1.37568,-6.14202 3.11106,-12.44403 4.26757,-18.49609 z m -42.56445,0.77148 c -3.58215,0.72814 -3.2118,5.28814 -3.04582,8.05656 1.53273,12.53166 6.32997,24.43019 11.39682,35.86715 0.5598,2.40684 3.16274,3.60257 5.34041,2.51575 2.02678,-0.26131 2.11869,3.97714 3.35631,5.55227 5.01679,11.50883 9.82699,23.1236 14.96791,34.56882 0.78658,1.78722 3.44019,1.16811 2.95898,-0.87305 -1.90805,-5.86246 -4.85032,-11.41387 -7.13559,-17.16216 -3.42167,-7.94982 -6.84278,-15.89988 -10.2648,-23.84956 2.02481,-0.76447 4.09529,-2.96587 2.40258,-5.16809 -5.6985,-12.53172 -11.04646,-25.23741 -16.95727,-37.66394 -0.63726,-1.05048 -1.66284,-2.11154 -3.01953,-1.84375 z m -8.74609,38.03516 c -6.21278,1.68896 -7.81908,9.68161 -6.09745,15.13178 0.88502,3.0164 2.97611,5.9934 6.14627,6.84673 0.20503,14.27935 0.11476,28.58748 0.49219,42.84961 0.3266,1.80386 2.3654,0.4865 2,-0.9082 -0.10703,-13.9595 -0.24828,-27.9193 -0.36914,-41.87891 5.6805,-0.97288 7.70877,-7.93448 6.90777,-12.95587 -0.53387,-4.45763 -3.91377,-9.92736 -9.07964,-9.08514 z"
         id="path5140"
         inkscape:connector-curvature="0" />
      <path
         style="opacity:0.09090899;fill:#000000;fill-opacity:1;fill-rule:evenodd;stroke:none;stroke-width:0.32168144px;stroke-linecap:butt;stroke-linejoin:miter;stroke-opacity:1"
         d="m 311.9668,345.66016 c -1.19741,1.01129 -1.0003,3.10087 -1.71943,4.47283 -1.43807,5.12523 -3.43128,10.13265 -4.54425,15.32404 -0.17243,2.38136 1.00108,4.76881 2.9336,6.15235 -7.12903,22.39086 -14.36128,44.75371 -21.42578,67.1621 -0.5922,1.48627 1.02279,3.54704 2.44336,2.14454 1.88674,-2.00654 1.89808,-5.08413 2.98718,-7.52366 6.44968,-20.17438 12.89862,-40.34899 19.34875,-60.52322 3.59941,0.41837 7.01089,-2.31437 7.66211,-5.81445 1.69794,-5.73299 3.69698,-11.43189 5.21289,-17.18555 -0.98313,-1.4217 -1.68728,0.88807 -1.78872,1.71736 -1.73215,5.58697 -3.46219,11.1746 -5.19565,16.76116 -2.07479,-0.32081 -3.44465,-1.02132 -2.07771,-3.15632 1.63414,-5.52924 3.57107,-11.02422 5.02302,-16.57415 -0.98316,-1.42171 -1.68726,0.88808 -1.78856,1.71741 -1.73156,5.58695 -3.46094,11.17458 -5.19386,16.7611 -2.09831,-0.31011 -3.51071,-0.98629 -2.0796,-3.15629 1.63175,-5.53129 3.57875,-11.02771 5.02101,-16.58003 -0.99012,-1.40666 -1.67841,0.90105 -1.78488,1.72516 -1.73213,5.58632 -3.46217,11.17329 -5.19559,16.75921 -2.09903,-0.30836 -3.50746,-0.98535 -2.07771,-3.15436 1.63414,-5.52924 3.57107,-11.02422 5.02302,-16.57416 -0.0876,-0.32857 -0.45437,-0.5418 -0.7832,-0.45507 z m 63.34179,1.76172 c -1.04524,2.54125 -1.32878,5.49696 -2.11622,8.17703 -0.81989,3.4384 -1.6405,6.87664 -2.45995,10.31515 -3.21419,-0.009 -6.42838,-0.0211 -9.64258,-0.0312 0.95638,11.07227 1.91276,22.14453 2.86914,33.2168 5.02019,-0.0566 10.04037,-0.11328 15.06055,-0.16992 1.26498,-10.99219 2.52995,-21.98438 3.79492,-32.97657 -3.87174,-0.0133 -7.74349,-0.0246 -11.61523,-0.0391 1.38373,-6.15058 3.06685,-12.31663 4.26953,-18.45898 -0.0392,-0.042 -0.10752,-0.059 -0.16016,-0.0332 z m -42.5625,0.76953 c -3.16581,0.47096 -3.28043,4.34556 -3.19943,6.81547 0.75036,10.14351 4.43357,19.90733 8.07517,29.36365 1.53163,3.37284 2.61273,7.0573 4.76098,10.08845 1.35527,1.3035 3.36821,0.6875 4.86524,0.0899 5.85139,13.44531 11.48936,27.00017 17.47461,40.37695 0.63303,1.36625 2.98474,1.63511 3.0957,-0.22266 0.0618,-2.85007 -1.97619,-5.26128 -2.80115,-7.91178 -4.84676,-11.26188 -9.69452,-22.52333 -14.54065,-33.78548 1.67696,-0.78117 3.81302,-2.39965 2.70508,-4.49219 -5.71816,-12.66801 -11.22008,-25.44104 -17.07031,-38.04492 -0.67175,-1.22419 -1.79054,-2.58765 -3.36524,-2.27734 z m -8.72656,38.0332 c -5.4782,1.36836 -7.42512,7.96264 -6.68433,12.97221 0.5082,3.85578 2.6752,8.02464 6.64527,9.18013 0.16918,14.19563 0.17505,28.45623 0.44531,42.61133 0.009,1.05373 1.41892,1.71634 1.88477,0.55664 0.86379,-2.68614 0.0765,-5.65014 0.30314,-8.43878 -0.10339,-11.5471 -0.20885,-23.09419 -0.31096,-34.6413 5.05565,-0.88531 7.25129,-6.71905 7.05304,-11.3224 -0.038,-5.05273 -3.37198,-11.7618 -9.33624,-10.91783 z"
         id="path5144"
         inkscape:connector-curvature="0" />
      <path
         style="opacity:0.09090899;fill:#000000;fill-opacity:1;fill-rule:evenodd;stroke:none;stroke-width:0.32168144px;stroke-linecap:butt;stroke-linejoin:miter;stroke-opacity:1"
         d="m 311.93164,345.56641 c -1.02395,0.61015 -0.83075,2.19251 -1.35811,3.17842 -1.60485,5.39696 -3.461,10.74009 -4.91533,16.16728 -0.37402,2.58109 0.77571,5.21514 2.86328,6.73242 -7.12168,22.36374 -14.35078,44.72982 -21.40625,67.0918 -0.36314,1.2447 0.42058,3.30152 2.02539,2.61523 2.10856,-1.11568 2.06476,-3.88838 2.92467,-5.83049 6.66613,-20.84999 13.32912,-41.701 19.99721,-62.55037 3.55826,0.37627 6.99187,-2.299 7.64258,-5.7832 1.76125,-5.73376 3.63578,-11.45567 5.2832,-17.21289 -0.29593,-1.30205 -1.84113,-0.42114 -1.70944,0.61767 -1.82185,5.87667 -3.64067,11.75429 -5.46439,17.63038 -0.7487,-0.54199 -3.15485,-0.21287 -2.35953,-1.56922 1.81116,-5.98053 3.78033,-11.93293 5.4943,-17.93078 -0.29591,-1.30205 -1.84119,-0.42116 -1.70937,0.61769 -1.81997,5.87685 -3.64165,11.75318 -5.46055,17.63035 -0.69486,-0.51703 -2.93552,-0.22273 -2.42262,-1.37817 1.83069,-6.04424 3.82096,-12.06011 5.55348,-18.12183 -0.29636,-1.30102 -1.83906,-0.41681 -1.70752,0.61962 -1.82058,5.87621 -3.64293,11.75188 -5.46241,17.62843 -0.67392,-0.47476 -2.64769,-0.26568 -2.47987,-1.18518 1.85066,-6.10789 3.85921,-12.18766 5.61269,-18.31287 -0.0338,-0.4463 -0.51059,-0.78293 -0.94141,-0.65429 z m 63.33008,1.76562 c -0.7786,1.09898 -0.67396,2.69347 -1.14418,3.96155 -1.15451,4.84027 -2.30824,9.68072 -3.46324,14.52087 -3.22394,-0.0145 -6.44792,-0.023 -9.67188,-0.0352 0.96159,11.14127 1.92318,22.28255 2.88477,33.42382 5.08073,-0.0579 10.16146,-0.11588 15.24219,-0.17382 1.27278,-11.0586 2.54557,-22.11719 3.81835,-33.17578 -3.86718,-0.0127 -7.73437,-0.0278 -11.60156,-0.0391 1.41095,-6.09761 2.94741,-12.17975 4.28906,-18.28515 -0.0236,-0.16125 -0.20222,-0.27153 -0.35351,-0.19727 z m -42.52734,0.75977 c -2.47587,0.24788 -3.22306,3.01812 -3.27262,5.11181 -0.13525,6.55264 1.81994,12.87974 3.68632,19.08843 2.40062,7.34409 5.13106,14.63957 8.59997,21.55952 1.12493,1.95817 3.69322,1.64176 5.44531,0.82422 5.77164,13.34442 11.46445,26.77412 17.28711,40.06445 0.51392,1.06361 2.21987,2.13996 3.125,0.82618 1.10478,-2.17326 -0.79425,-4.3213 -1.42713,-6.33212 -5.19176,-12.06176 -10.3823,-24.12404 -15.57482,-36.18546 1.48843,-0.77585 3.56441,-2.111 2.83234,-4.08895 -5.46604,-12.50111 -11.08602,-24.94684 -16.65358,-37.40666 -0.77913,-1.59819 -1.90289,-3.8158 -4.0479,-3.46142 z m -8.75,38.03711 c -4.3945,0.97889 -6.61753,5.77341 -6.85707,9.91071 -0.31369,4.61231 1.43979,9.98826 5.86737,12.08837 1.35666,0.0971 0.77697,1.50964 0.90424,2.46958 0.14052,13.40056 0.203,26.80519 0.3921,40.20321 -0.0321,0.84553 0.98534,2.07197 1.80859,1.19141 1.24573,-1.65175 0.43901,-3.87865 0.64354,-5.78227 -0.113,-12.54784 -0.22561,-25.09568 -0.33885,-37.64351 4.16109,-0.70585 6.47189,-5.10793 6.93006,-8.97142 0.63346,-4.82831 -1.01046,-10.57701 -5.57459,-12.96218 -1.17635,-0.54303 -2.49645,-0.74288 -3.77539,-0.5039 z"
         id="path5148"
         inkscape:connector-curvature="0" />
      <path
         style="opacity:0.09090899;fill:#000000;fill-opacity:1;fill-rule:evenodd;stroke:none;stroke-width:0.32168144px;stroke-linecap:butt;stroke-linejoin:miter;stroke-opacity:1"
         d="m 311.92188,345.46484 c -0.84931,0.25273 -0.73297,1.35901 -1.0612,2.01677 -1.72759,5.61391 -3.51423,11.25637 -5.20052,16.85433 -0.63261,2.71034 0.50069,5.70342 2.74414,7.34179 -7.10235,22.25254 -14.23768,44.49552 -21.32618,66.75196 -0.27907,1.08925 -0.15868,2.69083 1.08594,3.10937 1.37214,0.26325 2.40998,-1.10323 2.80061,-2.25707 7.063,-22.0678 14.11066,-44.14072 21.1701,-66.20972 3.26168,0.28649 6.49523,-1.90089 7.41522,-5.01673 1.83391,-5.94145 3.70516,-11.89751 5.523,-17.85268 0.22871,-0.90779 -1.1818,-1.40363 -1.58276,-0.56614 -1.94959,6.13992 -3.82136,12.3094 -5.74023,18.46094 -0.80236,-0.24779 -1.60389,-0.49831 -2.40625,-0.7461 1.89526,-6.15924 3.83796,-12.30619 5.70508,-18.47265 0.1418,-0.93613 -1.33654,-1.30099 -1.63732,-0.40235 -1.91552,6.1168 -3.79702,12.24695 -5.69862,18.36914 -0.803,-0.24784 -1.60521,-0.49824 -2.4082,-0.74609 1.89524,-6.1586 3.83797,-12.30489 5.70508,-18.4707 0.14526,-0.93707 -1.33578,-1.30016 -1.63537,-0.40235 -1.91615,6.11615 -3.79835,12.24564 -5.70057,18.36719 -0.80231,-0.24732 -1.60395,-0.49682 -2.40625,-0.74414 1.89525,-6.15924 3.83796,-12.3062 5.70508,-18.47266 0.0645,-0.56643 -0.49653,-1.05749 -1.05078,-0.91211 z m 63.30859,1.77149 c -0.6002,0.44375 -0.45717,1.34677 -0.72156,1.98718 -1.31199,5.49635 -2.62055,10.99356 -3.93469,16.48938 -3.23373,-0.0105 -6.46745,-0.0222 -9.70117,-0.0332 0.96744,11.20768 1.93489,22.41536 2.90234,33.62304 5.14128,-0.0579 10.28255,-0.11588 15.42383,-0.17382 1.27995,-11.125 2.55989,-22.25 3.83984,-33.375 -3.86263,-0.0129 -7.72526,-0.0269 -11.58789,-0.0391 1.41853,-6.03086 2.88004,-12.05419 4.27149,-18.08984 0.0284,-0.26085 -0.23849,-0.50523 -0.49219,-0.38867 z m -42.5,0.7539 c -1.39755,0.13775 -2.52366,1.20962 -2.89756,2.53581 -0.89112,2.94466 -0.4309,6.0837 0.006,9.06748 1.30899,7.58424 3.79996,14.9238 6.52102,22.1171 1.57306,4.0359 3.21129,8.06439 5.15032,11.94254 0.66478,1.33424 2.22295,2.04802 3.66928,1.71793 0.67274,-0.11448 1.32374,-0.32489 1.95898,-0.57031 5.70382,13.23864 11.38466,26.48781 17.10547,39.71875 0.49697,1.00415 1.64882,2.13612 2.85742,1.63281 1.24024,-0.74183 1.09052,-2.49162 0.5918,-3.64648 -5.65426,-13.13869 -11.30884,-26.27724 -16.96289,-39.41602 1.26942,-0.74307 2.96829,-1.64691 2.94726,-3.33984 -0.15414,-1.52601 -1.0935,-2.82726 -1.61824,-4.24071 -5.08362,-11.35994 -10.11589,-22.74362 -15.23178,-34.08863 -0.71164,-1.4275 -1.59633,-3.21151 -3.36091,-3.44996 -0.24675,-0.0196 -0.491,-0.0135 -0.73633,0.0195 z m -8.75391,38.03907 c -3.13089,0.63303 -5.28724,3.44741 -6.23585,6.34685 -1.468,4.49887 -0.81755,9.82262 2.20939,13.54548 1.00574,1.19673 2.32187,2.15859 3.83115,2.60376 0.13687,14.05504 0.2305,28.11207 0.39728,42.16585 0.0523,0.76775 0.54182,1.89296 1.48944,1.68376 1.19329,-0.50428 1.26382,-2.04366 1.20179,-3.16325 -0.12231,-13.51524 -0.24179,-27.03052 -0.36585,-40.54573 3.06177,-0.53716 5.2325,-3.25685 6.20965,-6.06167 1.53576,-4.34274 1.03006,-9.48847 -1.66752,-13.27266 -1.55774,-2.22725 -4.28706,-3.85069 -7.06948,-3.30239 z"
         id="path5152"
         inkscape:connector-curvature="0" />
      <path
         inkscape:connector-curvature="0"
         id="path5156"
         d="m 312.0271,345.34467 c -0.36989,0.0367 -0.69911,0.28945 -0.8164,0.66797 l -5.21094,16.81836 c -0.0252,0.0816 -0.0357,0.16289 -0.0391,0.24414 -0.0919,0.21799 -0.17382,0.44209 -0.24414,0.66797 -0.93428,3.01533 0.19269,6.16964 2.57226,7.9707 l -21.21875,66.38086 c -0.52812,1.65218 -0.0552,3.23064 1.06055,3.53906 1.11571,0.30842 2.43868,-0.7736 2.9668,-2.42578 l 21.10937,-66.0332 c 3.29251,0.21876 6.42793,-1.82538 7.44727,-5.11524 0.0667,-0.22229 0.12295,-0.44612 0.16796,-0.67383 0.0468,-0.0722 0.0885,-0.14992 0.11524,-0.23632 L 325.1482,350.331 c 0.15639,-0.5047 -0.12421,-1.03698 -0.62891,-1.19336 -0.50471,-0.15637 -1.037,0.12421 -1.19336,0.6289 l -5.64258,18.20703 -2.21484,-0.6875 5.64062,-18.20703 c 0.15638,-0.5047 -0.12421,-1.03699 -0.6289,-1.19336 -0.50471,-0.15637 -1.03698,0.12423 -1.19336,0.62891 l -5.64063,18.20703 -2.21679,-0.6875 5.64062,-18.20508 c 0.15638,-0.5047 -0.12225,-1.03698 -0.62695,-1.19336 -0.50471,-0.15636 -1.03698,0.12421 -1.19336,0.62891 l -5.64258,18.20508 -2.21484,-0.68555 5.64062,-18.20703 c 0.15638,-0.5047 -0.12421,-1.037 -0.6289,-1.19336 -0.12618,-0.0391 -0.25366,-0.0513 -0.37696,-0.0391 z m 63.29297,1.76562 c -0.0911,0.01 -0.1766,0.0468 -0.25,0.10157 -0.0734,0.0548 -0.13309,0.12823 -0.17969,0.20703 -0.0932,0.15766 -0.13523,0.33944 -0.17773,0.51757 l -4.2168,17.67774 -9.73242,-0.0332 2.91992,33.82422 15.60547,-0.17774 3.86328,-33.57226 -11.57422,-0.0391 4.19922,-17.7168 c 0.0211,-0.0891 0.0419,-0.17803 0.0449,-0.26953 0.003,-0.0915 -0.013,-0.18508 -0.0527,-0.26758 -0.0397,-0.0825 -0.10369,-0.15246 -0.18359,-0.19726 -0.0798,-0.0445 -0.17463,-0.0647 -0.26563,-0.0547 z m -42.23242,0.74805 c -0.48852,0.0159 -1.03131,0.15077 -1.64063,0.42773 -6.56232,3.38278 2.89292,30.57087 9.61719,44.73633 1.30288,2.8663 3.33018,2.94154 6.01953,1.90625 l 16.9336,39.34375 c 0.6857,1.59323 2.07683,2.47404 3.12109,1.97461 1.04428,-0.49944 1.33414,-2.18411 0.64844,-3.77734 l -16.92969,-39.33594 c 2.85377,-1.58963 3.37459,-2.76781 2.59766,-4.74219 L 337.4939,352.61615 c -1.18173,-2.64865 -2.28934,-4.82655 -4.40625,-4.75781 z m -8.30273,37.97266 a 11.529132,8.3902064 88.091259 0 0 -0.83399,0.10156 11.529132,8.3902064 88.091259 0 0 -6.96094,12.99609 11.529132,8.3902064 88.091259 0 0 6.69141,9.67188 l 0.37695,41.75781 c 0.0116,1.28375 0.67234,2.24003 1.48047,2.14453 0.80813,-0.0955 1.4491,-1.20453 1.4375,-2.48828 l -0.37109,-41.24805 a 11.529132,8.3902064 88.091259 0 1 0.002,0 11.529132,8.3902064 88.091259 0 0 6.96094,-12.99609 11.529132,8.3902064 88.091259 0 0 -8.78321,-9.93945 z"
         style="fill:#000000;fill-opacity:1;fill-rule:evenodd;stroke:none;stroke-width:0.32168144px;stroke-linecap:butt;stroke-linejoin:miter;stroke-opacity:1;opacity:0.090909" />
      <path
         style="opacity:0.09090899;fill:#000000;fill-opacity:1;fill-rule:evenodd;stroke:none;stroke-width:0.32168144px;stroke-linecap:butt;stroke-linejoin:miter;stroke-opacity:1"
         d="m 312.00977,345.24609 c -1.00943,0.1135 -1.01631,1.34269 -1.30887,2.07361 -1.73782,5.65841 -3.53626,11.31178 -5.2341,16.97327 -0.63918,2.73378 0.46658,5.76287 2.70508,7.45312 -7.09205,22.21259 -14.21335,44.41721 -21.28711,66.63477 -0.29793,1.15491 -0.1531,2.79704 1.10583,3.30724 1.33621,0.43027 2.52332,-0.81506 3.00492,-1.93971 1.54958,-4.59103 2.96288,-9.23441 4.46063,-13.84535 5.60772,-17.54255 11.21543,-35.0851 16.82315,-52.62765 3.39589,0.24916 6.74274,-2.16649 7.55021,-5.47872 1.8266,-5.83297 3.64308,-11.69443 5.43678,-17.545 0.26194,-0.96662 -1.10967,-1.69768 -1.76917,-0.94712 -0.543,0.75844 -0.59594,1.77263 -0.94754,2.62868 -1.64413,5.30481 -3.28826,10.60962 -4.93239,15.91443 -0.67448,-0.20964 -1.34896,-0.41927 -2.02344,-0.62891 1.8769,-6.11185 3.81601,-12.20927 5.6543,-18.33008 0.14199,-0.98564 -1.27037,-1.56386 -1.86133,-0.76367 -0.5451,1.10008 -0.75186,2.35477 -1.17193,3.51155 -1.54491,4.98638 -3.08981,9.97277 -4.63471,14.95915 -0.67513,-0.20963 -1.35026,-0.41927 -2.02539,-0.6289 1.8769,-6.1112 3.81603,-12.20797 5.65429,-18.32813 0.14348,-0.98598 -1.26869,-1.56381 -1.85937,-0.76367 -0.54514,1.10007 -0.75214,2.35468 -1.17234,3.51142 -1.54542,4.98578 -3.09084,9.97155 -4.63625,14.95733 -0.67448,-0.20898 -1.34896,-0.41797 -2.02344,-0.62695 1.8769,-6.11185 3.81601,-12.20927 5.6543,-18.33008 0.0685,-0.64639 -0.51825,-1.21733 -1.16211,-1.14063 z m 63.28515,1.76758 c -0.82313,0.23384 -0.67278,1.33088 -0.93495,1.96841 -1.31465,5.51053 -2.6293,11.02106 -3.94395,16.53159 -3.25391,-0.0109 -6.50782,-0.0229 -9.76172,-0.0332 0.98005,11.34172 1.95872,22.68356 2.9375,34.02539 5.26234,-0.0613 10.52473,-0.1215 15.78711,-0.17969 1.29387,-11.25728 2.59211,-22.51407 3.88476,-33.77148 -3.85286,-0.0123 -7.70573,-0.0262 -11.55859,-0.0391 1.39751,-5.96615 2.85854,-11.92198 4.2168,-17.89453 0.0228,-0.34517 -0.27531,-0.66072 -0.62696,-0.60742 z m -42.59375,0.7793 c -1.38359,0.15159 -2.56907,1.14658 -2.98516,2.471 -0.96296,2.81797 -0.55029,5.87566 -0.17212,8.76462 1.25562,7.72048 3.77562,15.16868 6.52136,22.4722 1.60804,4.142 3.28279,8.2731 5.26945,12.24998 0.68671,1.34665 2.24211,2.13712 3.73264,1.83606 0.67407,-0.0891 1.32711,-0.29278 1.96196,-0.53214 5.6821,13.18397 11.33976,26.38048 17.03711,39.55664 0.53863,1.10388 1.81764,2.28342 3.12109,1.72265 1.25198,-0.6884 1.23564,-2.41599 0.81055,-3.60156 -5.65116,-13.19083 -11.34581,-26.3702 -17.01367,-39.55664 1.25429,-0.73687 2.87528,-1.67666 2.89056,-3.32691 -0.0727,-1.56648 -1.06372,-2.8931 -1.59111,-4.33029 -5.09788,-11.39154 -10.14427,-22.80791 -15.27448,-34.18386 -0.73475,-1.49295 -1.68939,-3.33642 -3.53279,-3.56324 -0.26041,-0.0203 -0.51651,-0.0148 -0.77539,0.0215 z m -8.76172,38.03906 c -3.15929,0.63099 -5.37259,3.44584 -6.34796,6.37209 -1.5375,4.55597 -0.8943,9.96086 2.13703,13.77049 1.01738,1.21784 2.32866,2.21943 3.85351,2.69922 0.13801,14.01013 0.23081,28.02217 0.39701,42.03111 0.0457,0.8928 0.67883,2.12451 1.74166,1.86147 1.21886,-0.46682 1.42755,-2.00635 1.35006,-3.15271 -0.12189,-13.52332 -0.24379,-27.04663 -0.36568,-40.56995 3.15592,-0.66488 5.33538,-3.51072 6.29506,-6.44304 1.49114,-4.53635 0.84289,-9.89246 -2.16225,-13.68001 -1.63128,-2.02404 -4.25732,-3.4111 -6.89844,-2.88867 z"
         id="path5158"
         inkscape:connector-curvature="0" />
      <path
         style="opacity:0.09090899;fill:#000000;fill-opacity:1;fill-rule:evenodd;stroke:none;stroke-width:0.32168144px;stroke-linecap:butt;stroke-linejoin:miter;stroke-opacity:1"
         d="m 311.99023,345.14648 c -1.43862,0.30722 -1.17083,2.25498 -1.74018,3.29017 -1.62091,5.41794 -3.45376,10.78913 -4.95477,16.23222 -0.47176,2.63967 0.63897,5.47827 2.76136,7.11238 -7.09287,22.26149 -14.27079,44.50001 -21.31067,66.7758 -0.41495,1.38693 0.31069,3.58158 2.07044,3.30428 2.33409,-0.55589 2.65753,-3.37923 3.32527,-5.26078 6.73728,-21.07453 13.47456,-42.14906 20.21184,-63.2236 3.61477,0.24884 7.02765,-2.50913 7.71875,-6.02734 1.78413,-5.73053 3.59583,-11.46074 5.31445,-17.20899 0.18123,-1.31909 -1.92931,-1.72787 -2.25195,-0.43359 -1.86133,6.00521 -3.72266,12.01042 -5.58399,18.01563 -1.58101,-0.15937 -2.16613,-0.84262 -1.2993,-2.28968 1.68881,-5.51709 3.45415,-11.01624 5.09618,-16.54431 0.18123,-1.31909 -1.92932,-1.72787 -2.25196,-0.43359 -1.86067,6.00521 -3.72135,12.01041 -5.58203,18.01562 -1.58083,-0.15958 -2.169,-0.84153 -1.3012,-2.28965 1.68879,-5.51645 3.45414,-11.01495 5.09612,-16.54238 0.18448,-1.31916 -1.92826,-1.7278 -2.25,-0.43359 -1.86132,6.00456 -3.72265,12.00911 -5.58398,18.01367 -1.58156,-0.15771 -2.16597,-0.8406 -1.2993,-2.28772 1.68881,-5.51709 3.45415,-11.01624 5.09617,-16.54431 0.0746,-0.7056 -0.57972,-1.33205 -1.28125,-1.24024 z m 63.2793,1.76954 c -1.10544,0.43172 -0.78297,2.0162 -1.21593,2.91809 -1.23857,5.19332 -2.47714,10.38663 -3.71571,15.57995 -3.26432,-0.0121 -6.52866,-0.0211 -9.79297,-0.0351 0.98624,11.40874 1.97028,22.81769 2.95508,34.22656 5.32227,-0.0602 10.64453,-0.12125 15.9668,-0.18164 1.30623,-11.32258 2.60674,-22.64584 3.91015,-33.96875 -3.84831,-0.0115 -7.69661,-0.0263 -11.54492,-0.0391 1.38608,-5.93519 2.85099,-11.8583 4.18945,-17.80079 0.0257,-0.40617 -0.34175,-0.77221 -0.75195,-0.69921 z m -42.20117,0.74218 c -2.08183,-0.0121 -3.54397,1.84724 -3.79297,3.78125 -0.78354,5.19275 0.63598,10.40642 1.85746,15.41752 2.56261,9.25371 5.94359,18.30153 10.11786,26.94458 0.9034,1.89974 3.291,2.33596 5.10602,1.59135 1.13667,-0.59218 1.06939,1.50276 1.64579,2.17497 5.3913,12.45251 10.6792,24.95687 16.1342,37.37744 0.62415,1.26676 2.56512,2.35191 3.66797,1.02344 1.39866,-1.95024 -0.20993,-4.2931 -0.94088,-6.15005 -5.25082,-12.20063 -10.50165,-24.40127 -15.75248,-36.6019 1.51783,-0.78422 3.36282,-2.22699 2.76562,-4.17383 -2.39477,-5.84381 -5.13034,-11.55969 -7.65356,-17.35525 -3.25477,-7.14071 -6.28465,-14.39324 -9.67651,-21.46506 -0.7196,-1.29311 -1.84198,-2.6553 -3.47852,-2.56446 z m -9.14063,38.07422 c -4.46192,0.95626 -6.83299,5.7115 -7.17282,9.92073 -0.43668,4.82119 1.32826,10.4402 5.88376,12.76287 1.45029,0.0466 0.6569,1.6315 0.86553,2.53194 0.14071,13.30256 0.1984,26.60975 0.39033,39.90946 0.0136,1.12537 1.26343,2.4624 2.34375,1.54688 1.59103,-1.56318 0.69308,-4.03749 0.90516,-5.99244 -0.11226,-12.49731 -0.22453,-24.99462 -0.3368,-37.49194 4.36611,-1.03945 6.65286,-5.72401 6.99704,-9.87386 0.43555,-4.82351 -1.32357,-10.44101 -5.87399,-12.77458 -1.24269,-0.57672 -2.6494,-0.79285 -4.00196,-0.53906 z"
         id="path5162"
         inkscape:connector-curvature="0" />
      <path
         style="opacity:0.09090899;fill:#000000;fill-opacity:1;fill-rule:evenodd;stroke:none;stroke-width:0.32168144px;stroke-linecap:butt;stroke-linejoin:miter;stroke-opacity:1"
         d="m 311.97266,345.04883 c -1.77091,0.47952 -1.32957,3.0136 -2.11427,4.31372 -1.49759,5.27864 -3.49617,10.44605 -4.72715,15.78156 -0.27653,2.50835 0.82666,5.11394 2.81017,6.6723 -7.09144,22.28798 -14.30393,44.54338 -21.32032,66.85156 -0.51778,1.62296 0.82393,4.02357 2.7168,3.14258 2.63622,-1.41808 2.46649,-4.95742 3.59788,-7.36953 6.49602,-20.32019 12.99204,-40.64037 19.48806,-60.96055 3.70962,0.22393 7.0991,-2.66118 7.80078,-6.24414 1.7069,-5.78799 3.73923,-11.52686 5.25586,-17.34375 -0.19556,-1.65486 -2.69778,-1.2395 -2.61901,0.35827 -1.79171,5.78161 -3.58342,11.56323 -5.37513,17.34485 -2.81091,-0.0172 -0.71135,-2.62016 -0.48826,-4.23502 1.43324,-4.91381 3.20143,-9.77719 4.44334,-14.72006 -0.19553,-1.65485 -2.69786,-1.23952 -2.61894,0.3583 -1.79108,5.78226 -3.58217,11.56452 -5.37325,17.34678 -2.81221,-0.0163 -0.7145,-2.61911 -0.49021,-4.23502 1.43537,-4.9126 3.19572,-9.77414 4.44529,-14.71615 -0.19173,-1.65826 -2.69779,-1.24547 -2.61902,0.35436 -1.7917,5.78162 -3.58341,11.56324 -5.37512,17.34486 -2.81144,-0.0144 -0.71096,-2.61886 -0.48837,-4.23311 1.4333,-4.91444 3.20144,-9.77848 4.44344,-14.72197 -0.0681,-0.66946 -0.72693,-1.18138 -1.39257,-1.08984 z m 63.27148,1.77148 c -1.39685,0.65119 -0.90692,2.76368 -1.51839,3.96304 -1.15533,4.84305 -2.31066,9.6861 -3.46598,14.52915 -3.27409,-0.0107 -6.54818,-0.0245 -9.82227,-0.0332 0.98845,11.47606 1.98174,22.95171 2.9707,34.42773 5.38283,-0.0591 10.76565,-0.12098 16.14844,-0.18359 1.31235,-11.38911 2.62334,-22.7784 3.93164,-34.16797 -3.84374,-0.0147 -7.6875,-0.0257 -11.53125,-0.0391 1.33328,-5.97608 2.9844,-11.92893 4.14063,-17.91797 -0.0745,-0.38147 -0.473,-0.65458 -0.85352,-0.57813 z m -42.18359,0.73828 c -2.95472,-0.003 -4.13877,3.22257 -4.10188,5.71169 -0.0521,8.23218 2.73433,16.15787 5.29133,23.88206 2.1678,5.8391 4.28656,11.76639 7.2757,17.2361 1.19372,1.77706 3.63513,1.68076 5.39422,0.9182 5.72495,13.22438 11.34098,26.50115 17.13281,39.69336 0.67748,1.56478 3.26472,2.49461 4.11524,0.58594 1.05308,-2.79957 -1.38965,-5.35912 -2.12169,-7.92087 -4.936,-11.46843 -9.872,-22.93687 -14.808,-34.4053 1.87476,-0.81559 3.63199,-2.89119 2.4961,-4.98243 -5.7325,-12.68676 -11.23506,-25.48603 -17.10157,-38.10742 -0.73411,-1.32632 -1.90167,-2.71031 -3.57226,-2.61133 z m -8.3125,37.97461 c -5.35538,0.4677 -8.13552,6.34416 -8.15066,11.16859 -0.14156,4.78066 1.98551,10.35162 6.78542,12.11657 0.17934,14.09613 0.15174,28.20891 0.45703,42.29492 0.0523,1.35399 1.86149,2.37699 2.75,1.08008 1.41522,-2.23934 0.3379,-5.09858 0.6389,-7.58142 -0.10684,-11.8713 -0.21369,-23.7426 -0.32054,-35.61389 5.34037,-1.43419 7.47325,-7.72887 7.00468,-12.74218 -0.33805,-4.90138 -3.56571,-10.88031 -9.16483,-10.72267 z"
         id="path5166"
         inkscape:connector-curvature="0" />
      <path
         style="opacity:0.09090899;fill:#000000;fill-opacity:1;fill-rule:evenodd;stroke:none;stroke-width:0.32168144px;stroke-linecap:butt;stroke-linejoin:miter;stroke-opacity:1"
         d="m 311.95508,344.95117 c -2.04269,0.6169 -1.47444,3.62515 -2.42916,5.1443 -1.39942,5.13748 -3.50003,10.12363 -4.52397,15.34008 -0.15658,2.42668 0.92463,4.89647 2.82422,6.41601 -7.08118,22.38029 -14.43214,44.6941 -21.34765,67.11524 -0.52588,1.92048 1.61493,4.11433 3.39257,2.66211 2.58122,-2.25789 2.40023,-6.21713 3.79981,-9.15888 6.27506,-19.62933 12.55013,-39.25867 18.82519,-58.888 4.10692,0.23672 7.40791,-3.22135 8.06099,-7.07861 1.61739,-5.55218 3.61738,-11.04516 5.023,-16.63037 -0.26434,-1.86796 -3.03061,-1.2411 -2.87352,0.53759 -1.76221,5.68668 -3.52442,11.37337 -5.28664,17.06006 -2.96134,-0.44266 0.34058,-4.18521 0.3262,-6.18053 1.20337,-4.23234 2.80508,-8.40346 3.7949,-12.66908 -0.26431,-1.86794 -3.03069,-1.24111 -2.87344,0.53762 -1.76159,5.68668 -3.52318,11.37336 -5.28477,17.06004 -2.9642,-0.44076 0.33834,-4.18465 0.32442,-6.18047 1.20395,-4.2303 2.80235,-8.40008 3.79472,-12.66328 -0.25514,-1.8716 -3.03025,-1.24719 -2.87158,0.53367 -1.76221,5.68605 -3.52441,11.37209 -5.28662,17.05813 -2.96164,-0.43944 0.34094,-4.18421 0.32619,-6.17858 1.20338,-4.23234 2.80509,-8.40347 3.7949,-12.66908 -0.0821,-0.72198 -0.78994,-1.27146 -1.50976,-1.16797 z m 63.26367,1.77149 c -1.67554,0.88071 -1.03958,3.50924 -1.82251,5.01 -1.07153,4.49276 -2.14307,8.98552 -3.2146,13.47828 -3.2845,-0.0113 -6.56901,-0.0211 -9.85352,-0.0332 0.99458,11.54375 1.99364,23.08712 2.98829,34.63086 5.44336,-0.0612 10.88671,-0.12404 16.33007,-0.18554 1.31618,-11.45598 2.63379,-22.91181 3.95508,-34.36719 -3.83919,-0.0139 -7.67838,-0.0259 -11.51758,-0.0391 1.30884,-5.9542 3.00536,-11.88067 4.10938,-17.84961 -0.0905,-0.43122 -0.54341,-0.73426 -0.97461,-0.64453 z m -42.16797,0.73632 c -3.64089,0.093 -4.41661,4.37691 -4.21484,7.26368 0.79507,11.36126 5.06215,22.13174 9.24804,32.60742 1.49692,2.69486 1.94603,6.31278 4.58008,8.1914 1.31001,0.70829 2.87449,0.39363 4.20117,-0.0898 5.7965,13.28134 11.33411,26.69763 17.28516,39.89844 0.86671,1.78545 3.91095,2.02655 4.29688,-0.22656 0.47371,-3.39778 -2.26592,-6.26852 -3.1393,-9.40648 -4.64758,-10.79875 -9.29516,-21.5975 -13.94274,-32.39626 2.08071,-0.86798 3.69723,-3.2939 2.29211,-5.43756 -5.78161,-12.6919 -11.17941,-25.57649 -17.18468,-38.15619 -0.72348,-1.20438 -1.90936,-2.35394 -3.42188,-2.24805 z m -8.31445,37.97461 c -6.09594,0.60767 -8.79188,7.73517 -8.18228,13.11904 0.36834,4.20552 2.53294,8.80614 6.72915,10.33214 0.18146,14.08174 0.14835,28.1803 0.45899,42.25195 0.053,1.71703 2.47683,2.47274 3.18164,0.74219 1.13681,-3.11578 0.054,-6.62012 0.38099,-9.86882 -0.099,-10.97862 -0.19801,-21.95725 -0.29701,-32.93587 6.05861,-1.78028 7.97555,-9.35526 6.68715,-14.91509 -0.86009,-4.26734 -4.13974,-8.9396 -8.95863,-8.72554 z"
         id="path5170"
         inkscape:connector-curvature="0" />
      <path
         style="opacity:0.09090899;fill:#000000;fill-opacity:1;fill-rule:evenodd;stroke:none;stroke-width:0.32168144px;stroke-linecap:butt;stroke-linejoin:miter;stroke-opacity:1"
         d="m 311.93555,344.85156 c -2.37468,0.83294 -1.65264,4.44553 -2.83089,6.26533 -1.23486,5.00398 -3.63785,9.78757 -4.21404,14.91631 0.03,2.23558 1.08663,4.43708 2.81836,5.85157 -7.07231,22.3711 -14.43519,44.67183 -21.33007,67.08593 -0.6021,2.1665 2.01961,4.3495 3.78711,2.5586 2.70757,-3.02748 2.63101,-7.62718 4.30105,-11.21876 6.03441,-18.87565 12.06883,-37.7513 18.10324,-56.62695 4.22183,0.20893 7.48155,-3.41081 8.14166,-7.34192 1.5169,-5.56973 3.8106,-11.05576 4.92865,-16.66979 -0.54565,-1.91886 -3.29463,-0.92582 -3.08895,0.9005 -1.73272,5.59176 -3.46544,11.18352 -5.19815,16.77528 -2.6401,-1.09268 1.08213,-5.53533 1.1093,-8.03241 0.83958,-3.67563 2.78197,-7.26009 3.11335,-10.98127 -0.83522,-2.08443 -3.54428,-0.40311 -3.21146,1.46407 -1.68276,5.4319 -3.36553,10.8638 -5.0483,16.2957 -2.64385,-1.09019 1.08068,-5.53506 1.10782,-8.03225 0.83817,-3.67583 2.78529,-7.25969 3.11288,-10.98142 -0.83976,-2.08062 -3.54068,-0.39539 -3.20969,1.46792 -1.68336,5.43126 -3.36672,10.86253 -5.05008,16.2938 -2.64022,-1.08923 1.08259,-5.53443 1.10955,-8.03038 0.83941,-3.67502 2.78198,-7.25881 3.11311,-10.97939 -0.20333,-0.646 -0.89577,-1.07483 -1.56445,-0.98047 z m 63.25586,1.77539 c -2.03697,1.24199 -1.21624,4.59884 -2.24113,6.54323 -0.94957,3.98038 -1.89914,7.96077 -2.84872,11.94115 -3.29427,-0.0111 -6.58854,-0.0219 -9.88281,-0.0332 1.00132,11.61074 2.00574,23.2212 3.00586,34.83204 5.50389,-0.0646 11.00784,-0.12442 16.51172,-0.18946 1.32273,-11.5218 2.6503,-23.04305 3.97656,-34.56445 -3.83463,-0.0131 -7.66927,-0.026 -11.50391,-0.0391 1.28047,-5.93213 3.03497,-11.83327 4.07813,-17.78125 -0.10159,-0.4793 -0.61682,-0.81928 -1.0957,-0.70899 z m -42.15039,0.73243 c -4.26474,0.23042 -4.55867,5.40954 -4.24414,8.65624 1.54055,13.21498 6.61522,25.75015 12.09374,37.77149 0.99681,2.2746 3.83986,2.7374 5.92188,1.77148 5.78902,13.25849 11.31029,26.65551 17.25781,39.83203 0.9727,2.02775 4.37826,1.95011 4.53711,-0.56054 0.054,-4.06106 -3.01969,-7.47953 -4.11692,-11.28473 -4.2187,-10.07136 -8.97781,-20.3222 -12.85964,-30.28168 2.38465,-0.9604 3.46466,-3.84131 1.87382,-5.9894 -5.70939,-12.51062 -11.01004,-25.22538 -16.94804,-37.62193 -0.74643,-1.24169 -1.9583,-2.39952 -3.51562,-2.29296 z m -8.31641,37.9746 c -6.76913,0.78047 -9.30857,9.00246 -8.04492,14.83985 0.707,3.66286 2.83858,7.44427 6.50586,8.78125 0.22867,14.1428 0.0591,28.32572 0.51953,42.44531 0.25898,2.00678 3.10958,2.05449 3.51172,0.0937 0.68998,-5.91904 -0.0926,-12.00929 0.11148,-17.98371 -0.073,-8.11936 -0.14594,-16.23872 -0.2189,-24.35809 6.86959,-2.23893 8.4358,-11.3083 5.974,-17.33514 -1.29418,-3.44381 -4.42228,-6.70336 -8.35877,-6.48322 z"
         id="path5174"
         inkscape:connector-curvature="0" />
    </g>
    <g
       id="g5178">
      <path
         style="opacity:0.09090899;fill:#000000;fill-opacity:1;fill-rule:evenodd;stroke:none;stroke-width:0.32168144px;stroke-linecap:butt;stroke-linejoin:miter;stroke-opacity:1"
         d="m 333.10352,350.4668 c -2.69196,2.45184 -0.63888,7.49125 -0.43555,10.72851 2.58613,10.96009 6.14764,21.9827 11.60351,31.73047 2.87804,-0.60971 9.54397,-2.31164 5.54724,-6.30416 -5.77832,-11.89473 -10.17172,-24.7491 -16.65661,-36.16068 l -0.0586,0.006 z M 308.5,368.01367 c 0.64028,2.79054 5.83768,3.21952 6.19727,1.75391 -1.9017,-0.49947 -4.76734,-1.65984 -6.19727,-1.75391 z m 57.56641,28.76367 c 6.9088,0.60215 13.41728,0.76041 11.81703,-8.07253 0.78495,-6.82023 1.56989,-13.64045 2.35484,-20.46067 -5.54868,-0.0182 -11.09155,-0.0353 -16.64062,-0.0547 0.82291,9.5293 1.64583,19.0586 2.46875,28.58789 z m -41.61914,-8.28711 c -7.79372,2.37579 -6.24823,19.12774 2.64843,17.38868 6.06182,-3.28466 5.24868,-17.33499 -2.64843,-17.38868 z"
         id="path5180"
         inkscape:connector-curvature="0" />
      <path
         style="opacity:0.09090899;fill:#000000;fill-opacity:1;fill-rule:evenodd;stroke:none;stroke-width:0.32168144px;stroke-linecap:butt;stroke-linejoin:miter;stroke-opacity:1"
         d="m 333.02344,349.95117 c -3.43666,2.24386 -1.00819,8.01732 -0.85547,11.39063 2.68578,10.99843 6.14177,22.27955 11.77344,32.03906 4.41411,-1.6513 5.72748,0.83485 7.02938,5.3173 4.9798,11.55659 10.03593,23.3458 14.96866,34.75887 -5.89109,-13.7407 -11.81757,-27.46701 -17.72461,-41.20117 1.85583,-0.94882 5.27098,-2.35095 2.50158,-4.8968 -5.93701,-12.28126 -10.49523,-25.40575 -17.12267,-37.26922 -0.15707,-0.13372 -0.37047,-0.17517 -0.57031,-0.13867 z m -25.40039,17.19336 c 2.98509,3.53231 3.21948,6.43001 0.8196,10.91628 -6.37442,19.98099 -13.24379,41.35231 -19.31374,60.47825 7.19117,-22.49465 14.38236,-44.98931 21.57226,-67.48437 3.27611,0.82664 7.86808,-1.87654 2.16602,-2.39844 -1.66957,-0.45009 -3.81949,-1.32211 -5.24414,-1.51172 z m 57.96679,30.1582 c 6.21974,-0.13879 14.47317,1.97764 12.64221,-7.08885 0.86275,-7.49577 1.72551,-14.99154 2.58826,-22.48732 -5.93165,-0.0211 -11.8573,-0.0371 -17.78906,-0.0586 0.85286,9.87825 1.70573,19.75651 2.55859,29.63476 z m -41.24804,-9.32421 c -8.50655,2.45881 -6.64858,20.53274 2.98047,18.36914 6.57186,-3.62848 5.61884,-18.33851 -2.98047,-18.36914 z"
         id="path5184"
         inkscape:connector-curvature="0" />
      <path
         style="opacity:0.09090899;fill:#000000;fill-opacity:1;fill-rule:evenodd;stroke:none;stroke-width:0.32168144px;stroke-linecap:butt;stroke-linejoin:miter;stroke-opacity:1"
         d="m 332.94141,349.4375 c -4.05137,2.17346 -1.45194,8.33842 -1.28516,12 2.72309,11.14101 6.21126,22.52744 11.92187,32.3457 3.21172,0.023 5.57549,-1.45891 6.1254,3.28299 5.70831,12.45456 10.37785,25.63007 16.64414,37.69943 0.24913,-4.23222 -3.98658,-9.21804 -5.13341,-13.6207 -4.11306,-9.55678 -8.22631,-19.11348 -12.33925,-28.67031 2.97004,-0.92431 4.68062,-3.55957 1.90469,-6.25339 -5.80274,-12.00898 -10.2734,-24.85419 -16.73086,-36.4302 -0.29023,-0.28464 -0.70325,-0.43403 -1.10742,-0.35352 z m -25.96485,16.99219 c 0.84127,3.77905 4.92209,5.37183 1.58097,9.5679 -6.55953,21.32563 -14.0943,42.52611 -20.07706,63.92624 2.47354,-1.39073 2.33526,-7.11783 3.88681,-9.809 6.23724,-19.51019 12.4722,-39.0211 18.71084,-58.53085 3.41955,0.92775 8.80776,-2.80146 2.64256,-3.20643 -2.16508,-0.57971 -4.81542,-1.66656 -6.74412,-1.94786 z m 58.13672,31.39843 c 5.61345,-0.79039 15.23659,2.86513 13.47093,-6.10716 0.94003,-8.17066 1.88006,-16.34132 2.82009,-24.51198 -6.31523,-0.0234 -12.6243,-0.0395 -18.93946,-0.0625 0.88282,10.22722 1.76563,20.45443 2.64844,30.68164 z M 324.24609,387.4668 c -9.13044,2.64109 -7.02633,21.01828 2.6875,19.60351 7.8263,-3.17025 6.72345,-19.81148 -2.6875,-19.60351 z"
         id="path5188"
         inkscape:connector-curvature="0" />
      <path
         style="opacity:0.09090899;fill:#000000;fill-opacity:1;fill-rule:evenodd;stroke:none;stroke-width:0.32168144px;stroke-linecap:butt;stroke-linejoin:miter;stroke-opacity:1"
         d="m 332.875,348.92188 c -4.57569,2.04047 -1.99052,8.81128 -1.73047,12.61132 2.70268,11.26046 6.28088,22.5225 11.96289,32.56641 2.91171,0.92317 5.72801,-1.66176 6.1176,3.17165 5.69521,12.5034 10.4384,25.61491 16.63826,37.7971 2.63841,0.98122 0.33094,-4.37068 -0.21723,-4.94312 -5.36929,-12.47745 -10.74144,-24.95367 -16.10894,-37.43188 3.17354,-0.93422 4.26238,-4.06526 1.72691,-6.66353 -5.76535,-12.01628 -10.30322,-24.72657 -16.65464,-36.4146 -0.42371,-0.49746 -1.07149,-0.82295 -1.73438,-0.69335 z m -26.44336,17.05273 c 0.66201,4.25293 4.80986,6.30183 1.32527,10.81728 -6.46883,21.05677 -13.92201,41.96449 -19.81746,63.1085 1.3628,2.49262 3.13064,-3.16184 3.09121,-3.89661 6.8072,-21.29627 13.61667,-42.59182 20.42246,-63.88855 2.70667,1.11818 9.89414,-3.48952 3.70704,-3.83593 -2.72685,-0.57995 -6.62576,-2.5689 -8.72852,-2.30469 z m 58.20703,32.37891 c 5.15642,-1.27348 15.64644,3.36733 14.29414,-5.12349 1.01784,-8.84686 2.03568,-17.69372 3.05352,-26.54058 -6.69817,-0.0238 -13.39027,-0.0423 -20.08789,-0.0664 0.91341,10.57682 1.82682,21.15364 2.74023,31.73047 z m -40.49805,-11.39649 c -8.69046,2.93575 -8.20264,18.29337 0.57422,20.87305 0.42969,14.43055 -0.31124,29.49048 0.78516,43.57226 1.10907,-10.5701 -0.1574,-21.66803 0.15838,-32.4128 0.57814,-5.19526 -2.52468,-11.82015 4.0174,-13.10673 5.23464,-5.358 3.57277,-19.2314 -5.53516,-18.92578 z"
         id="path5192"
         inkscape:connector-curvature="0" />
      <path
         style="opacity:0.09090899;fill:#000000;fill-opacity:1;fill-rule:evenodd;stroke:none;stroke-width:0.32168144px;stroke-linecap:butt;stroke-linejoin:miter;stroke-opacity:1"
         d="m 312.01562,345.875 c -2.3467,5.90698 -3.93898,12.40806 -5.9414,18.54297 -0.64348,2.66442 0.57239,5.58106 2.81836,7.11523 -7.12028,22.61328 -14.64122,45.1372 -21.51758,67.80469 -0.37865,2.12583 2.30778,2.26756 2.88477,0.49414 7.35508,-22.33029 14.3512,-44.80312 21.57031,-67.1875 4.10958,0.60547 7.34486,-2.89284 7.9327,-6.68484 1.51667,-5.39332 3.64426,-10.8041 4.80558,-16.18821 -1.64727,-0.38861 -1.14919,3.22564 -1.9891,4.1572 -1.51814,4.89807 -3.03485,9.79657 -4.55387,14.69437 -4.89435,0.0193 -2.07385,-4.02243 -1.36025,-6.95606 1.13895,-4.38678 3.1582,-8.85177 3.81338,-13.19824 -1.70226,0.0109 -1.16824,3.56938 -2.0918,4.70482 -1.46507,4.73264 -2.93344,9.46426 -4.39649,14.19752 -4.58384,-0.005 -2.38922,-3.58055 -1.51786,-6.45929 1.1941,-4.55231 3.25423,-9.17994 3.96904,-13.69305 -1.70224,0.0109 -1.16866,3.56925 -2.09237,4.70464 -1.46551,4.73205 -2.93449,9.46304 -4.39787,14.19575 -4.33052,0.002 -2.68935,-3.1419 -1.66993,-5.96067 1.30019,-4.71058 3.22898,-9.43963 4.17188,-14.14089 -0.10353,-0.12431 -0.2806,-0.1835 -0.4375,-0.14258 z m 20.77735,2.53125 c -3.9849,1.05658 -3.01131,6.24433 -2.79334,9.37126 1.99464,12.52973 6.59868,24.47095 12.01404,35.89437 1.12715,2.49892 4.3122,0.46534 5.54883,1.05078 5.87738,13.39847 11.3984,26.98994 17.48828,40.27343 1.06144,1.82412 3.29649,0.26941 2.51367,-1.50586 -5.61863,-13.58552 -11.60944,-27.03964 -17.36718,-40.57617 2.14977,-0.80257 4.12587,-3.08323 2.34576,-5.29545 -5.7733,-12.54988 -10.99283,-25.38562 -17.08209,-37.77291 -0.58636,-0.87942 -1.53807,-1.66494 -2.66797,-1.43945 z m 38.20898,17.32813 c -2.47536,0.9363 -6.34333,0.10388 -9.34776,0.36829 -0.53085,2.63076 0.46944,6.67097 0.52579,9.84227 0.66006,7.64465 1.32012,15.28931 1.98018,22.93397 4.88867,-0.0553 9.77734,-0.11068 14.66601,-0.16602 1.24805,-10.847 2.4961,-21.69401 3.74414,-32.54101 -3.88281,-0.0129 -7.76562,-0.0266 -11.64843,-0.0391 0.75029,-3.17081 1.50278,-6.3411 2.2539,-9.51172 -0.72461,3.03776 -1.44922,6.07552 -2.17383,9.11329 z m -46.94336,20.70703 c -7.19794,2.22924 -8.24288,12.21155 -4.69125,17.94341 0.62199,2.80698 5.09325,2.63993 4.84322,5.25084 0.23706,13.87573 0.0337,27.80521 0.52967,41.6495 0.80814,1.81848 2.13792,-0.71759 1.71212,-1.80319 -0.12448,-13.74529 -0.24588,-27.49061 -0.37227,-41.23588 6.70268,-1.25421 8.30234,-10.03756 6.22851,-15.62304 -1.15843,-3.40756 -4.30579,-6.91162 -8.25,-6.18164 z"
         id="path5196"
         inkscape:connector-curvature="0" />
      <path
         inkscape:connector-curvature="0"
         id="path5200"
         d="m 312.0271,345.34467 c -0.36989,0.0367 -0.69911,0.28945 -0.8164,0.66797 l -5.21094,16.81836 c -0.0252,0.0816 -0.0357,0.16289 -0.0391,0.24414 -0.0919,0.21799 -0.17382,0.44209 -0.24414,0.66797 -0.93428,3.01533 0.19269,6.16964 2.57226,7.9707 l -21.21875,66.38086 c -0.52812,1.65218 -0.0552,3.23064 1.06055,3.53906 1.11571,0.30842 2.43868,-0.7736 2.9668,-2.42578 l 21.10937,-66.0332 c 3.29251,0.21876 6.42793,-1.82538 7.44727,-5.11524 0.0667,-0.22229 0.12295,-0.44612 0.16796,-0.67383 0.0468,-0.0722 0.0885,-0.14992 0.11524,-0.23632 L 325.1482,350.331 c 0.15639,-0.5047 -0.12421,-1.03698 -0.62891,-1.19336 -0.50471,-0.15637 -1.037,0.12421 -1.19336,0.6289 l -5.64258,18.20703 -2.21484,-0.6875 5.64062,-18.20703 c 0.15638,-0.5047 -0.12421,-1.03699 -0.6289,-1.19336 -0.50471,-0.15637 -1.03698,0.12423 -1.19336,0.62891 l -5.64063,18.20703 -2.21679,-0.6875 5.64062,-18.20508 c 0.15638,-0.5047 -0.12225,-1.03698 -0.62695,-1.19336 -0.50471,-0.15636 -1.03698,0.12421 -1.19336,0.62891 l -5.64258,18.20508 -2.21484,-0.68555 5.64062,-18.20703 c 0.15638,-0.5047 -0.12421,-1.037 -0.6289,-1.19336 -0.12618,-0.0391 -0.25366,-0.0513 -0.37696,-0.0391 z m 63.29297,1.76562 c -0.0911,0.01 -0.1766,0.0468 -0.25,0.10157 -0.0734,0.0548 -0.13309,0.12823 -0.17969,0.20703 -0.0932,0.15766 -0.13523,0.33944 -0.17773,0.51757 l -4.2168,17.67774 -9.73242,-0.0332 2.91992,33.82422 15.60547,-0.17774 3.86328,-33.57226 -11.57422,-0.0391 4.19922,-17.7168 c 0.0211,-0.0891 0.0419,-0.17803 0.0449,-0.26953 0.003,-0.0915 -0.013,-0.18508 -0.0527,-0.26758 -0.0397,-0.0825 -0.10369,-0.15246 -0.18359,-0.19726 -0.0798,-0.0445 -0.17463,-0.0647 -0.26563,-0.0547 z m -42.23242,0.74805 c -0.48852,0.0159 -1.03131,0.15077 -1.64063,0.42773 -6.56232,3.38278 2.89292,30.57087 9.61719,44.73633 1.30288,2.8663 3.33018,2.94154 6.01953,1.90625 l 16.9336,39.34375 c 0.6857,1.59323 2.07683,2.47404 3.12109,1.97461 1.04428,-0.49944 1.33414,-2.18411 0.64844,-3.77734 l -16.92969,-39.33594 c 2.85377,-1.58963 3.37459,-2.76781 2.59766,-4.74219 L 337.4939,352.61615 c -1.18173,-2.64865 -2.28934,-4.82655 -4.40625,-4.75781 z m -8.30273,37.97266 a 11.529132,8.3902064 88.091259 0 0 -0.83399,0.10156 11.529132,8.3902064 88.091259 0 0 -6.96094,12.99609 11.529132,8.3902064 88.091259 0 0 6.69141,9.67188 l 0.37695,41.75781 c 0.0116,1.28375 0.67234,2.24003 1.48047,2.14453 0.80813,-0.0955 1.4491,-1.20453 1.4375,-2.48828 l -0.37109,-41.24805 a 11.529132,8.3902064 88.091259 0 1 0.002,0 11.529132,8.3902064 88.091259 0 0 6.96094,-12.99609 11.529132,8.3902064 88.091259 0 0 -8.78321,-9.93945 z"
         style="fill:#000000;fill-opacity:1;fill-rule:evenodd;stroke:none;stroke-width:0.32168144px;stroke-linecap:butt;stroke-linejoin:miter;stroke-opacity:1;opacity:0.090909" />
      <path
         style="opacity:0.09090899;fill:#000000;fill-opacity:1;fill-rule:evenodd;stroke:none;stroke-width:0.32168144px;stroke-linecap:butt;stroke-linejoin:miter;stroke-opacity:1"
         d="m 311.93164,344.83203 c -2.44073,0.87513 -1.68559,4.6101 -2.90966,6.48914 -1.15955,5.11061 -3.91471,9.96334 -4.12356,15.23327 0.16685,2.05395 1.19222,4.02966 2.78713,5.33618 -7.07138,22.36933 -14.43402,44.66729 -21.32813,67.08008 -0.60118,2.18483 2.0417,4.37447 3.82227,2.57422 2.77301,-3.13902 2.69724,-7.88264 4.42243,-11.59054 5.99396,-18.75042 11.98791,-37.50084 17.98186,-56.25126 4.24354,0.20501 7.50016,-3.44714 8.15741,-7.3938 1.49857,-5.57544 3.85137,-11.06478 4.909,-16.68627 -0.81389,-2.17995 -3.64634,-0.45609 -3.28206,1.47837 -1.67551,5.40695 -3.35102,10.8139 -5.02653,16.22085 -2.58096,-1.19787 1.20661,-5.75136 1.23922,-8.32633 0.80571,-3.57033 2.72132,-7.05296 3.01273,-10.66782 -0.85749,-2.13285 -3.61654,-0.37819 -3.26434,1.5214 -1.67491,5.40693 -3.34981,10.81386 -5.02472,16.22079 -2.5848,-1.19531 1.20505,-5.75118 1.23751,-8.32625 0.8041,-3.57194 2.72598,-7.05462 3.01249,-10.67179 -0.86604,-2.12656 -3.61155,-0.36717 -3.26258,1.52719 -1.6755,5.4063 -3.35099,10.8126 -5.02649,16.2189 -2.58109,-1.19435 1.2069,-5.75056 1.23923,-8.32438 0.8057,-3.57033 2.72132,-7.05296 3.01273,-10.66781 -0.20272,-0.65688 -0.90836,-1.09066 -1.58594,-0.99414 z m 63.25586,1.77539 c -2.09531,1.2912 -1.24688,4.76124 -2.30761,6.77094 -0.93131,3.90448 -1.86263,7.80896 -2.79395,11.71344 -3.29623,-0.0111 -6.59245,-0.022 -9.88867,-0.0332 1.00296,11.62373 2.00745,23.24732 3.00976,34.8711 5.51562,-0.0627 11.03123,-0.12759 16.54688,-0.1875 1.32457,-11.53548 2.65148,-23.07072 3.98242,-34.60547 -3.83399,-0.013 -7.66797,-0.026 -11.50195,-0.0391 1.27844,-5.92767 3.03458,-11.8235 4.07226,-17.76758 -0.10528,-0.48838 -0.63092,-0.83526 -1.11914,-0.72266 z m -42.14844,0.73242 c -4.27553,0.23019 -4.58055,5.41864 -4.26172,8.67774 1.54018,13.21883 6.61607,25.75653 12.09571,37.78125 0.99927,2.27816 3.83967,2.74397 5.92773,1.78711 5.78908,13.25272 11.30282,26.64676 17.25391,39.8164 0.98096,2.04266 4.41098,1.95896 4.57226,-0.56836 0.0332,-4.18817 -3.13536,-7.71662 -4.26693,-11.64558 -4.18023,-9.94935 -8.83355,-20.0552 -12.7194,-29.90715 2.41347,-0.9703 3.47561,-3.89007 1.86534,-6.05133 -5.70496,-12.49931 -11.00014,-25.20533 -16.93369,-37.5893 -0.74989,-1.24909 -1.96865,-2.40847 -3.53321,-2.30078 z m -8.3164,37.97461 c -6.96365,0.82582 -9.46793,9.41846 -7.94505,15.36985 0.76653,3.48511 2.90001,7.01207 6.38841,8.28445 0.22961,14.14016 0.0579,28.32032 0.51953,42.4375 0.26338,2.02511 3.14443,2.0733 3.55078,0.0937 0.68627,-6.31471 -0.0998,-12.7997 0.10082,-19.16952 -0.0694,-7.72084 -0.13883,-15.44167 -0.20824,-23.16251 7.08264,-2.35397 8.52997,-11.83801 5.73242,-17.95117 -1.40696,-3.20452 -4.41649,-6.11561 -8.13867,-5.90235 z"
         id="path5202"
         inkscape:connector-curvature="0" />
      <path
         style="opacity:0.09090899;fill:#000000;fill-opacity:1;fill-rule:evenodd;stroke:none;stroke-width:0.32168144px;stroke-linecap:butt;stroke-linejoin:miter;stroke-opacity:1"
         d="m 311.83789,344.32031 c -3.79779,1.6946 -2.49323,7.84097 -4.58065,10.93483 -1.5203,5.14008 -5.38183,12.34637 -0.1713,16.80736 -6.95127,22.54953 -14.84692,44.91455 -21.26758,67.56836 -0.18745,3.9948 5.4164,3.78242 6.12305,0.30078 7.03612,-21.89281 14.00937,-43.80773 21.02148,-65.70898 7.89469,-0.14516 8.75753,-9.78534 10.63236,-15.36244 -0.12547,-3.04132 5.43138,-9.24424 0.73483,-10.79967 -4.2671,1.04811 -2.7937,7.93287 -4.95802,10.94837 -2.85939,9.77317 -2.61318,7.05724 0.0625,-1.00629 -0.15981,-3.33294 5.20253,-8.64144 1.35449,-11.11786 -4.56877,-0.14979 -3.14689,7.26692 -5.15917,9.91728 -2.33661,8.1778 -3.65803,10.58404 -0.53004,0.90393 -0.1058,-3.71784 5.14567,-8.68606 2.02515,-11.91106 -4.53179,-1.1719 -3.53554,6.43651 -5.23712,8.80167 -1.79833,6.41378 -4.52103,13.62722 -1.12128,2.81453 0.0687,-4.07244 4.93196,-8.80018 2.64356,-12.6455 -0.43686,-0.35537 -1.01317,-0.52949 -1.57227,-0.44531 z m 63.2168,1.78321 c -3.48308,2.53375 -1.97464,8.68063 -3.90531,12.28976 1.60312,9.1082 -8.43398,4.5312 -11.43459,7.14013 1.00554,11.64053 2.00842,23.28129 3.01568,34.92167 5.56719,-0.70038 13.38853,1.10238 17.5918,-1.10938 1.33202,-11.57552 2.66409,-23.15103 3.99609,-34.72656 -5.26533,-0.44776 -14.83457,2.49531 -10.04215,-5.87735 -0.1266,-3.96375 3.97443,-8.7377 1.96012,-12.39023 -0.31981,-0.24744 -0.78945,-0.34818 -1.18164,-0.24804 z m -42.0625,0.71875 c -6.31385,0.83083 -4.88507,9.16507 -4.17969,13.56445 2.63307,12.11287 6.54907,24.26713 12.64648,35.04687 1.98202,2.62039 6.33056,-1.12971 6.2368,3.54663 5.64593,12.33176 10.26071,25.26526 16.4136,37.30298 2.72709,3.26806 6.70279,-1.18494 4.63281,-4.22656 -5.32408,-12.84615 -11.59227,-25.98408 -16.32813,-38.64844 5.56717,-3.25441 -0.55609,-9.7056 -1.67666,-13.66052 -5.18219,-10.3459 -8.65961,-21.67788 -14.62802,-31.5758 -0.78429,-0.8691 -1.93121,-1.43223 -3.11719,-1.34961 z m -8.33203,37.97461 c -11.1774,1.91189 -11.68661,20.13269 -2.01172,24.52734 0.45916,14.21196 -0.33447,28.60905 0.72265,42.73437 1.21633,3.03966 5.28533,0.69701 4.64453,-2.05468 -0.005,-13.45276 -0.47472,-27.24518 -0.19335,-40.48829 10.38128,-4.01695 8.80703,-24.40001 -3.16211,-24.71874 z"
         id="path5206"
         inkscape:connector-curvature="0" />
      <path
         style="opacity:0.09090899;fill:#000000;fill-opacity:1;fill-rule:evenodd;stroke:none;stroke-width:0.32168144px;stroke-linecap:butt;stroke-linejoin:miter;stroke-opacity:1"
         d="m 311.74219,343.81055 c -4.37921,1.83224 -2.9655,8.72885 -5.277,12.24745 -1.65867,4.98215 -4.78423,11.80372 0.027,16.15489 -6.96539,22.38761 -14.63156,44.62286 -21.19727,67.09766 -0.57025,4.43034 5.8083,5.18108 6.97656,1.16015 7.30609,-21.79467 13.81678,-44.38573 21.37891,-65.77343 8.51992,-0.92991 8.56015,-11.57809 11.03286,-17.59511 1.21802,-2.46982 4.29526,-10.24091 -1.31802,-9.4088 -1.14302,0.37171 -3.14238,-2.60031 -4.84961,-1.01758 -0.45119,-2.39652 -3.48022,-1.04015 -4.1621,-1.55859 -0.498,-0.92156 -1.57002,-1.48667 -2.61133,-1.30664 z m 63.17969,1.79101 c -3.91697,2.42874 -2.27101,8.92078 -4.27879,12.67248 1.85943,9.49241 -10.15511,3.0166 -11.43411,7.4408 1.01516,11.7552 2.02883,23.51052 3.04493,35.26563 6.14259,-0.068 12.28515,-0.13967 18.42773,-0.20899 1.40535,-12.22413 2.8106,-24.44828 4.2207,-36.67187 -6.18752,0.0342 -14.63755,1.85014 -9.73888,-6.8503 -0.32926,-3.53191 4.69899,-9.28848 0.61193,-11.67704 -0.28392,0.0181 -0.58261,-0.10787 -0.85351,0.0293 z m -41.97852,0.70313 c -6.68079,0.80052 -5.4816,9.48388 -4.64258,14.17773 2.6503,12.187 6.58942,24.41593 12.73438,35.25781 1.92533,2.72461 6.41942,-0.6505 6.36175,3.8611 5.65604,12.23034 10.12118,25.15864 16.35114,37.05492 2.87065,3.50068 7.61266,-0.84738 5.6289,-4.4043 -5.18788,-12.87471 -11.87006,-26.13276 -16.19531,-38.74609 5.39377,-3.973 -1.33306,-10.4597 -2.37707,-14.88235 -5.09589,-10.08518 -8.39503,-21.21486 -14.32801,-30.82078 -0.89103,-0.97954 -2.19573,-1.59603 -3.5332,-1.49804 z m -8.34766,37.97656 c -11.58739,1.92941 -12.28245,20.54233 -2.46484,25.39648 0.47132,14.14481 -0.36274,28.47721 0.74023,42.53321 1.34447,3.6098 6.37643,1.15863 5.66602,-2.21094 -0.12044,-13.35612 -0.24089,-26.71224 -0.36133,-40.06836 10.74863,-4.35761 8.95425,-25.44955 -3.58008,-25.65039 z"
         id="path5210"
         inkscape:connector-curvature="0" />
      <path
         style="opacity:0.09090899;fill:#000000;fill-opacity:1;fill-rule:evenodd;stroke:none;stroke-width:0.32168144px;stroke-linecap:butt;stroke-linejoin:miter;stroke-opacity:1"
         d="m 311.64844,343.29883 c -4.7376,1.74592 -3.32906,8.9174 -5.67935,12.60487 -1.71461,5.09401 -4.7632,11.91218 -0.0687,16.45372 -6.92756,22.34347 -14.64048,44.51782 -21.125,66.95703 -0.60656,4.62872 6.05976,6.01347 7.72852,1.83203 7.36706,-21.86304 14.10147,-43.98038 21.23437,-65.9375 8.73729,-0.92273 9.00308,-11.70576 11.44106,-17.95253 1.00531,-2.87136 4.42615,-9.73704 -1.03676,-10.23692 -1.79553,0.48765 -3.53606,-2.04864 -5.49805,-1.20898 -1.5763,-2.18179 -4.09863,-0.32665 -5.62305,-2.42578 -0.44831,-0.10293 -0.91645,-0.17907 -1.37304,-0.0859 z m 63.13867,1.79883 c -4.30409,2.35947 -2.59281,9.14303 -4.64976,13.05531 1.48329,8.74345 -9.02338,3.34496 -11.55544,6.33553 1.06468,12.33916 2.13016,24.67825 3.19543,37.01736 6.45639,-0.0728 12.91278,-0.14609 19.36914,-0.2207 1.44494,-12.56783 2.89259,-25.13535 4.3379,-37.70313 -6.1838,0.0516 -14.45998,1.753 -9.66332,-6.84849 -0.24687,-3.00903 5.40528,-11.66862 -1.03395,-11.63588 z m -41.89258,0.68945 c -7.03831,0.77435 -6.07411,9.80156 -5.10547,14.79101 2.68425,12.27439 6.62224,24.62122 12.86719,35.51758 1.91309,2.71772 6.43265,-0.21672 6.43595,4.10915 5.65306,12.1431 10.00894,25.04973 16.29257,36.82445 3.45806,4.07938 8.90968,-1.35056 6.3125,-5.38282 -5.38353,-12.57267 -10.89156,-25.17853 -16.19727,-37.73046 5.68244,-4.10071 -0.94961,-10.92458 -2.21886,-15.5054 -5.14529,-10.12874 -8.40086,-21.36109 -14.43934,-30.97703 -0.99597,-1.08809 -2.45991,-1.76276 -3.94727,-1.64648 z m -8.36133,37.97851 c -11.98511,1.93319 -12.88924,20.96318 -2.91992,26.23438 0.43254,14.04792 -0.29721,28.24728 0.70313,42.22266 1.34099,4.30825 7.5366,1.85306 6.74023,-2.22852 0.17698,-13.19815 -0.83333,-27.18312 0.0781,-39.89453 10.41147,-5.26801 8.26063,-26.25034 -4.60157,-26.33399 z"
         id="path5214"
         inkscape:connector-curvature="0" />
      <path
         style="opacity:0.09090899;fill:#000000;fill-opacity:1;fill-rule:evenodd;stroke:none;stroke-width:0.32168144px;stroke-linecap:butt;stroke-linejoin:miter;stroke-opacity:1"
         d="m 311.55273,342.78711 c -5.07109,1.67725 -3.70708,9.09781 -6.08168,12.96229 -1.74904,5.19583 -4.75451,12.02509 -0.15855,16.73302 -6.89007,22.30604 -14.65608,44.42478 -21.05664,66.83594 -0.63593,5.18661 6.88562,6.71359 8.73828,2.02148 7.53731,-21.69252 13.77362,-44.44399 21.51563,-65.71484 8.84641,-1.65358 8.71417,-12.65132 11.46382,-19.16938 1.06016,-4.81672 0.57191,2.12965 1.21502,3.66247 2.52708,12.48188 6.73474,24.82061 12.78405,36.00886 1.7774,3.12685 6.7373,0.34689 6.80707,4.66969 5.6179,12.04557 9.91558,24.85742 16.17144,36.53539 3.13538,4.00354 9.32376,-0.0389 7.64649,-4.57617 -5.05332,-13.01081 -11.54139,-26.01469 -16.28516,-38.82031 5.36515,-4.83044 -1.72561,-11.59475 -2.96419,-16.6491 -5.05236,-9.87168 -8.14546,-20.89254 -14.13933,-30.222 -2.66044,-3.24772 -8.25885,-1.69617 -9.64648,1.73828 -1.20271,-3.12538 -4.72912,-1.6534 -6.77148,-3.50585 -2.16124,0.37044 -3.91059,-1.81641 -6.06055,-1.41016 -0.77691,-0.87649 -2.02779,-1.29921 -3.17774,-1.09961 z m 63.10157,1.80859 c -4.6655,2.29767 -2.93228,9.35728 -5.02268,13.43621 1.83905,9.36261 -11.23711,1.52904 -11.53016,6.9314 1.06609,12.35601 2.13393,24.71187 3.19932,37.06794 6.76954,-0.0764 13.53905,-0.15501 20.3086,-0.23047 1.48616,-12.91213 2.96931,-25.8246 4.45898,-38.73633 -6.16625,0.0568 -14.536,1.85064 -9.59083,-6.84844 0.15369,-3.24376 5.17712,-11.99062 -1.82323,-11.62031 z M 324.4707,383.25 c -12.37761,1.93435 -13.49593,21.3882 -3.37304,27.06055 0.47335,14.00528 -0.37072,28.18368 0.73632,42.10742 1.42284,4.64994 8.30584,2.43985 7.73633,-2.10156 0.0917,-13.21481 -0.6155,-26.90242 -0.0703,-39.82618 10.76661,-5.62838 8.38456,-27.23595 -5.0293,-27.24023 z"
         id="path5218"
         inkscape:connector-curvature="0" />
    </g>
    <path
       style="fill:#000000;fill-opacity:1;fill-rule:evenodd;stroke:none;stroke-width:0.32168144px;stroke-linecap:butt;stroke-linejoin:miter;stroke-opacity:1"
       d="m 312.0271,345.34467 c -0.36989,0.0367 -0.69911,0.28945 -0.8164,0.66797 l -5.21094,16.81836 c -0.0252,0.0816 -0.0357,0.16289 -0.0391,0.24414 -0.0919,0.21799 -0.17382,0.44209 -0.24414,0.66797 -0.93428,3.01533 0.19269,6.16964 2.57226,7.9707 l -21.21875,66.38086 c -0.52812,1.65218 -0.0552,3.23064 1.06055,3.53906 1.11571,0.30842 2.43868,-0.7736 2.9668,-2.42578 l 21.10937,-66.0332 c 3.29251,0.21876 6.42793,-1.82538 7.44727,-5.11524 0.0667,-0.22229 0.12295,-0.44612 0.16796,-0.67383 0.0468,-0.0722 0.0885,-0.14992 0.11524,-0.23632 L 325.1482,350.331 c 0.15639,-0.5047 -0.12421,-1.03698 -0.62891,-1.19336 -0.50471,-0.15637 -1.037,0.12421 -1.19336,0.6289 l -5.64258,18.20703 -2.21484,-0.6875 5.64062,-18.20703 c 0.15638,-0.5047 -0.12421,-1.03699 -0.6289,-1.19336 -0.50471,-0.15637 -1.03698,0.12423 -1.19336,0.62891 l -5.64063,18.20703 -2.21679,-0.6875 5.64062,-18.20508 c 0.15638,-0.5047 -0.12225,-1.03698 -0.62695,-1.19336 -0.50471,-0.15636 -1.03698,0.12421 -1.19336,0.62891 l -5.64258,18.20508 -2.21484,-0.68555 5.64062,-18.20703 c 0.15638,-0.5047 -0.12421,-1.037 -0.6289,-1.19336 -0.12618,-0.0391 -0.25366,-0.0513 -0.37696,-0.0391 z m 63.29297,1.76562 c -0.0911,0.01 -0.1766,0.0468 -0.25,0.10157 -0.0734,0.0548 -0.13309,0.12823 -0.17969,0.20703 -0.0932,0.15766 -0.13523,0.33944 -0.17773,0.51757 l -4.2168,17.67774 -9.73242,-0.0332 2.91992,33.82422 15.60547,-0.17774 3.86328,-33.57226 -11.57422,-0.0391 4.19922,-17.7168 c 0.0211,-0.0891 0.0419,-0.17803 0.0449,-0.26953 0.003,-0.0915 -0.013,-0.18508 -0.0527,-0.26758 -0.0397,-0.0825 -0.10369,-0.15246 -0.18359,-0.19726 -0.0798,-0.0445 -0.17463,-0.0647 -0.26563,-0.0547 z m -42.23242,0.74805 c -0.48852,0.0159 -1.03131,0.15077 -1.64063,0.42773 -6.56232,3.38278 2.89292,30.57087 9.61719,44.73633 1.30288,2.8663 3.33018,2.94154 6.01953,1.90625 l 16.9336,39.34375 c 0.6857,1.59323 2.07683,2.47404 3.12109,1.97461 1.04428,-0.49944 1.33414,-2.18411 0.64844,-3.77734 l -16.92969,-39.33594 c 2.85377,-1.58963 3.37459,-2.76781 2.59766,-4.74219 L 337.4939,352.61615 c -1.18173,-2.64865 -2.28934,-4.82655 -4.40625,-4.75781 z m -8.30273,37.97266 a 11.529132,8.3902064 88.091259 0 0 -0.83399,0.10156 11.529132,8.3902064 88.091259 0 0 -6.96094,12.99609 11.529132,8.3902064 88.091259 0 0 6.69141,9.67188 l 0.37695,41.75781 c 0.0116,1.28375 0.67234,2.24003 1.48047,2.14453 0.80813,-0.0955 1.4491,-1.20453 1.4375,-2.48828 l -0.37109,-41.24805 a 11.529132,8.3902064 88.091259 0 1 0.002,0 11.529132,8.3902064 88.091259 0 0 6.96094,-12.99609 11.529132,8.3902064 88.091259 0 0 -8.78321,-9.93945 z"
       id="path5053"
       inkscape:connector-curvature="0" />
    <g
       transform="translate(-270.12042,81.65813)"
       id="g4187">
      <rect
         inkscape:transform-center-y="0.55726989"
         inkscape:transform-center-x="0.83295483"
         transform="matrix(0.968972,0.24717051,-0.29897177,0.95426196,0,0)"
         ry="0.69671637"
         y="163.39828"
         x="516.26855"
         height="5.57373"
         width="16.040209"
         id="rect4246"
         style="fill:#ffffff;fill-opacity:1;stroke:#ffffff;stroke-width:1.35010457;stroke-linejoin:round;stroke-miterlimit:4;stroke-dasharray:none;stroke-opacity:1" />
      <rect
         rx="0"
         transform="matrix(0.99434115,0.10623408,-0.29458003,0.95562681,0,0)"
         ry="0.75796944"
         y="224.91977"
         x="524.06976"
         height="18.815474"
         width="1.6655123"
         id="rect4158-4-0"
         style="fill:#ffffff;fill-opacity:1;stroke:#ffffff;stroke-width:0.27715316;stroke-linejoin:round;stroke-miterlimit:4;stroke-dasharray:none;stroke-opacity:1" />
      <rect
         rx="0"
         transform="matrix(0.99420104,0.10753741,-0.2912769,0.95663879,0,0)"
         ry="0.78578067"
         y="224.21524"
         x="527.94116"
         height="19.505848"
         width="1.7075028"
         id="rect4158-4-0-1"
         style="fill:#ffffff;fill-opacity:1;stroke:#ffffff;stroke-width:0.28572711;stroke-linejoin:round;stroke-miterlimit:4;stroke-dasharray:none;stroke-opacity:1" />
      <rect
         rx="0"
         transform="matrix(0.99420104,0.10753741,-0.2912769,0.95663879,0,0)"
         ry="0.78578067"
         y="224.01118"
         x="533.27911"
         height="19.505848"
         width="1.7075028"
         id="rect4158-4-0-1-1"
         style="fill:#ffffff;fill-opacity:1;stroke:#ffffff;stroke-width:0.28572711;stroke-linejoin:round;stroke-miterlimit:4;stroke-dasharray:none;stroke-opacity:1" />
      <rect
         rx="0"
         transform="matrix(0.99420104,0.10753741,-0.2912769,0.95663879,0,0)"
         ry="0.78578067"
         y="223.92107"
         x="538.77747"
         height="19.505848"
         width="1.7075028"
         id="rect4158-4-0-1-1-8"
         style="fill:#ffffff;fill-opacity:1;stroke:#ffffff;stroke-width:0.28572711;stroke-linejoin:round;stroke-miterlimit:4;stroke-dasharray:none;stroke-opacity:1" />
    </g>
    <path
       inkscape:connector-curvature="0"
       id="path4148"
       d="m 312.0271,345.34467 c -0.36989,0.0367 -0.69911,0.28945 -0.8164,0.66797 l -5.21094,16.81836 c -0.0252,0.0816 -0.0357,0.16289 -0.0391,0.24414 -0.0919,0.21799 -0.17382,0.44209 -0.24414,0.66797 -0.93428,3.01533 0.19269,6.16964 2.57226,7.9707 l -21.21875,66.38086 c -0.52812,1.65218 -0.0552,3.23064 1.06055,3.53906 1.11571,0.30842 2.43868,-0.7736 2.9668,-2.42578 l 21.10937,-66.0332 c 3.29251,0.21876 6.42793,-1.82538 7.44727,-5.11524 0.0667,-0.22229 0.12295,-0.44612 0.16796,-0.67383 0.0468,-0.0722 0.0885,-0.14992 0.11524,-0.23632 L 325.1482,350.331 c 0.15639,-0.5047 -0.12421,-1.03698 -0.62891,-1.19336 -0.50471,-0.15637 -1.037,0.12421 -1.19336,0.6289 l -5.64258,18.20703 -2.21484,-0.6875 5.64062,-18.20703 c 0.15638,-0.5047 -0.12421,-1.03699 -0.6289,-1.19336 -0.50471,-0.15637 -1.03698,0.12423 -1.19336,0.62891 l -5.64063,18.20703 -2.21679,-0.6875 5.64062,-18.20508 c 0.15638,-0.5047 -0.12225,-1.03698 -0.62695,-1.19336 -0.50471,-0.15636 -1.03698,0.12421 -1.19336,0.62891 l -5.64258,18.20508 -2.21484,-0.68555 5.64062,-18.20703 c 0.15638,-0.5047 -0.12421,-1.037 -0.6289,-1.19336 -0.12618,-0.0391 -0.25366,-0.0513 -0.37696,-0.0391 z m 63.29297,1.76562 c -0.0911,0.01 -0.1766,0.0468 -0.25,0.10157 -0.0734,0.0548 -0.13309,0.12823 -0.17969,0.20703 -0.0932,0.15766 -0.13523,0.33944 -0.17773,0.51757 l -4.2168,17.67774 -9.73242,-0.0332 2.91992,33.82422 15.60547,-0.17774 3.86328,-33.57226 -11.57422,-0.0391 4.19922,-17.7168 c 0.0211,-0.0891 0.0419,-0.17803 0.0449,-0.26953 0.003,-0.0915 -0.013,-0.18508 -0.0527,-0.26758 -0.0397,-0.0825 -0.10369,-0.15246 -0.18359,-0.19726 -0.0798,-0.0445 -0.17463,-0.0647 -0.26563,-0.0547 z m -42.23242,0.74805 c -0.48852,0.0159 -1.03131,0.15077 -1.64063,0.42773 -6.56232,3.38278 2.89292,30.57087 9.61719,44.73633 1.30288,2.8663 3.33018,2.94154 6.01953,1.90625 l 16.9336,39.34375 c 0.6857,1.59323 2.07683,2.47404 3.12109,1.97461 1.04428,-0.49944 1.33414,-2.18411 0.64844,-3.77734 l -16.92969,-39.33594 c 2.85377,-1.58963 3.37459,-2.76781 2.59766,-4.74219 L 337.4939,352.61615 c -1.18173,-2.64865 -2.28934,-4.82655 -4.40625,-4.75781 z m -8.30273,37.97266 a 11.529132,8.3902064 88.091259 0 0 -0.83399,0.10156 11.529132,8.3902064 88.091259 0 0 -6.96094,12.99609 11.529132,8.3902064 88.091259 0 0 6.69141,9.67188 l 0.37695,41.75781 c 0.0116,1.28375 0.67234,2.24003 1.48047,2.14453 0.80813,-0.0955 1.4491,-1.20453 1.4375,-2.48828 l -0.37109,-41.24805 a 11.529132,8.3902064 88.091259 0 1 0.002,0 11.529132,8.3902064 88.091259 0 0 6.96094,-12.99609 11.529132,8.3902064 88.091259 0 0 -8.78321,-9.93945 z"
       style="fill:#ffffff;fill-opacity:1;fill-rule:evenodd;stroke:#ffffff;stroke-width:0.32168144px;stroke-linecap:butt;stroke-linejoin:miter;stroke-opacity:1" />
    <g
       id="g5072"
       transform="matrix(1.000000,0.000000,0.000000,1.000000,262.368900,340.233340)"
       inkscape:label="Voronoi" />
  </g>
</svg>
